<?xml version="1.0" encoding="utf-8"?>
<!-- Generator: Adobe Illustrator 25.4.1, SVG Export Plug-In . SVG Version: 6.00 Build 0)  -->
<svg version="1.1" id="Layer_1" xmlns="http://www.w3.org/2000/svg" xmlns:xlink="http://www.w3.org/1999/xlink" x="0px" y="0px"
	 viewBox="0 0 56 56" style="enable-background:new 0 0 56 56;" xml:space="preserve">
<g>
	<circle style="fill:#FFFFFF;" cx="28" cy="28" r="28"/>
</g>
<g>
	<path style="fill:#254790;" d="M16,34.2c0,0.6,0.2,2.2,1.3,3.8c1.3,1.8,4.1,4.3,10.4,5.8V27.7H16V34.2z"/>
	<path style="fill:#254790;" d="M40,12.2H28.3v14.9H40V12.2z"/>
	<path style="fill:#E31205;" d="M27.7,12.2H16v14.9h11.7V12.2z"/>
	<path style="fill:#E31205;" d="M40,34.2v-6.6H28.3v16.1c3.6-0.9,8.1-2.6,10.4-5.8C39.8,36.3,40.1,34.8,40,34.2z"/>
	<path style="fill:#1A1A1A;" d="M40.6,11.6H28.3h-0.6H15.4v22.5c0,0-0.7,7.1,12.2,10.2l0.3,0.1l0.3-0.1c12.9-3,12.2-10.2,12.2-10.2
		L40.6,11.6L40.6,11.6z M27.7,43.8c-6.2-1.5-9-3.9-10.4-5.8c-1.1-1.6-1.4-3.1-1.3-3.8v-6.6h11.7V43.8z M27.7,27.1H16V12.2h11.7V27.1
		z M28.3,12.2H40v14.9H28.3V12.2z M38.7,38c-2.3,3.3-6.8,4.9-10.4,5.8V27.7H40v6.5C40.1,34.8,39.8,36.3,38.7,38z"/>
	<path style="fill:#CCCCCC;" d="M33,23.4v-0.7c-1.2,0.1-2,0.2-2.2,0.3l0.2,0.6C31.5,23.5,32.2,23.4,33,23.4z"/>
	<path style="fill:#CCCCCC;" d="M34.7,23.4c0.4,0.1,0.9,0.1,1.3,0.2l0.3-0.7c-0.6-0.1-1.1-0.1-1.5-0.2V23.4z"/>
	<path style="fill:#CCCCCC;" d="M30,24l0.5,0.9c0.2-0.1,1.5-0.4,3.4-0.4c1.4,0,2.8,0.2,4.1,0.6l0.4-0.9c-1.6-0.5-3.1-0.7-4.8-0.7
		C31.6,23.5,30.3,23.9,30,24z"/>
	<path style="fill:#CCCCCC;" d="M37.3,23c-0.3-0.1-0.6-0.1-1-0.2L36,23.6c0.3,0.1,0.6,0.1,0.9,0.2L37.3,23z"/>
	<path style="fill:#CCCCCC;" d="M38.7,16.6l-1-1.2v1.3L38.7,16.6z"/>
	<path style="fill:#CCCCCC;" d="M32.2,21.8c-0.9,0.1-1.5,0.2-1.7,0.2l0.3,0.9c0.2-0.1,0.7-0.2,1.5-0.2C32.2,22.5,32.2,22,32.2,21.8z
		"/>
	<path style="fill:#CCCCCC;" d="M38.4,21.4c-0.2-0.1-0.5-0.1-0.6-0.1l-0.5,0.7c0.2,0.1,0.5,0.1,0.7,0.2L38.4,21.4z"/>
	<path style="fill:#CCCCCC;" d="M33.8,22.6v-0.8c-0.6,0-1.1,0-1.5,0.1c0,0.1,0.1,0.5,0.1,0.9C32.8,22.6,33.2,22.6,33.8,22.6z"/>
	<path style="fill:#CCCCCC;" d="M31.4,21.1c-0.6,0.1-1,0.2-1.1,0.2l0.2,0.7c0.1,0,0.5-0.1,1-0.2C31.4,21.4,31.4,21.2,31.4,21.1z"/>
	<path style="fill:#CCCCCC;" d="M33.1,23.4c0.2,0,0.3,0,0.5,0c0.3,0,0.7,0,1,0.1v-0.7c-0.6,0-1,0-1.5,0V23.4z"/>
	<path style="fill:#CCCCCC;" d="M37,23.8c0.1,0.1,0.3,0.1,0.4,0.1l0.3-0.8c-0.1-0.1-0.2-0.1-0.3-0.1L37,23.8z"/>
	<path style="fill:#CCCCCC;" d="M36.4,15.7c0-0.2-0.1-0.7-0.2-0.9l-0.9,0.7c0,0.1,0,0.7,0,1h0.1h0.1c0.2,0.1,0.3,0,0.5-0.1
		c0.1-0.1,0.1-0.1,0.2-0.2c0.1-0.1,0.1-0.2,0.1-0.2C36.4,15.9,36.4,15.8,36.4,15.7z"/>
	<path style="fill:#CCCCCC;" d="M38,22.4c-0.3-0.1-0.7-0.2-1-0.2v0.8c0.2,0.1,0.5,0.1,0.7,0.2L38,22.4z"/>
	<path style="fill:#CCCCCC;" d="M37.4,16.8l-0.9-1c0,0.1,0,0.1,0,0.2c0,0.1-0.1,0.2-0.1,0.2l0.7,0.8L37.4,16.8z"/>
	<path style="fill:#CCCCCC;" d="M34.4,16.6c-0.1,0.1-0.3,0.2-0.4,0.3c-0.5,0.3-0.9,0.6-1.4,0.8c-0.2,0.1-0.4,0.2-0.6,0.3
		c-0.1,0.1-0.4,0.2-0.6,0.4c-0.2,0.2-0.2,0.6-0.1,0.9c0.1,0.3,0.3,0.5,0.5,0.7c0.2,0.3,0.4,0.5,0.7,0.7h0.7v0.1h-0.6l0.1,0.8
		c0.2,0,0.5-0.1,0.7-0.1v-0.8h0.1v0.8c0.2,0,0.5,0,0.7,0v-0.9h0.1c0,0,0.3,0,0.6,0c-0.5-0.8-1.4-1.4-2.2-1.5l-0.2-0.1l0.2-0.1
		c1.1-0.4,2.2-1.4,2.7-2.7c0-0.2,0-0.7,0-0.9C35,16,34.7,16.3,34.4,16.6z"/>
	<path style="fill:#CCCCCC;" d="M35.8,15.1l-0.9-0.9l-0.3,0.2l0.9,1L35.8,15.1z"/>
	<path style="fill:#CCCCCC;" d="M36.7,21.9c0.1-0.1,0.2-0.6,0.3-0.7c-0.3-0.1-0.6-0.1-0.9-0.1l0.2,0.8
		C36.4,21.9,36.5,21.9,36.7,21.9z"/>
	<path style="fill:#CCCCCC;" d="M34.3,21.7h0.1c0.2,0,0.5,0,0.7,0.1h0.1l0.1-0.7c-0.3,0-0.8-0.1-1-0.1V21.7z"/>
	<path style="fill:#CCCCCC;" d="M36.9,22.9v-0.8c-0.4-0.1-0.8-0.1-1.1-0.2l-0.2,0.8C36,22.7,36.4,22.7,36.9,22.9z"/>
	<path style="fill:#CCCCCC;" d="M34.4,21.8c-0.2,0-0.3,0-0.5,0v0.8c0.5,0,1,0,1.5,0.1l0.2-0.8c-0.2,0-0.3-0.1-0.5-0.1H34.4z"/>
	<path style="fill:#CCCCCC;" d="M30.6,34.9l-0.1,2.2l4.5,0.6l-0.1-2.3L30.6,34.9z"/>
	<path style="fill:#CCCCCC;" d="M35,37.7l1.8-0.5l-0.1-2.1L35,35.5V37.7z"/>
	<path style="fill:#CCCCCC;" d="M34,34.2v-0.7h-2.3l-1,1.4l4.2,0.5C33.9,34.7,34,34.2,34,34.2z"/>
	<path style="fill:#CCCCCC;" d="M35.5,31.8l-3.3-0.3L31,32.4l4.2,0.2L35.5,31.8z"/>
	<path style="fill:#CCCCCC;" d="M35,33.3l0.2-0.6l-4.1-0.2l0.3,0.3l0.3,0.5H35z"/>
	<path style="fill:#CCCCCC;" d="M35.4,33.3l-0.3,0.1H35h-0.9v0.7c0,0-0.1,0.5,0.9,1.2l1.6-0.3c-1.1-0.4-1.2-1-1.2-1.1V33.3z"/>
	<path style="fill:#CCCCCC;" d="M38.2,32l-2.6-0.2l-0.2,0.8L38.2,32z"/>
	<path style="fill:#CCCCCC;" d="M35.3,32.7l-0.2,0.5l2.9-1.1L35.3,32.7z"/>
	<path style="fill:#CCCCCC;" d="M18.2,31.8l0.7-0.7l0.3,0.4l-0.7,0.7l0.2,0.2l0.7-0.7l0.9,0.9v0.6h0.5l1,1l-1.7,1.9
		C19.9,36,19.6,36,19.3,36c-0.4,0-0.7,0.2-0.9,0.5c-0.2,0.3-0.2,0.6-0.1,1c0.1,0.3,0.4,0.7,0.7,0.9c0.3,0.2,0.7,0.3,1,0.3
		c0.4,0,0.7-0.2,0.9-0.5c0.3-0.5,0.1-1.3-0.5-1.8l1.7-1.8l2.2,2.3c-0.5,0.5-0.7,1.1-0.4,1.6c0.2,0.3,0.5,0.5,1,0.5
		c0.3,0,0.6-0.1,0.9-0.3c0.7-0.5,1-1.3,0.6-1.8c-0.2-0.3-0.5-0.5-0.9-0.5c-0.3,0-0.6,0.1-0.9,0.2l-2.2-2.3l0.6-0.7l0.6,0.1V33l1-1.1
		l0.5,0.1l0.5,0.4l0.2-0.1v-0.2l-0.5-0.4l-0.1-0.6l0.3-0.3l0.7,0.7h0.2v-0.2l-0.7-0.7l0.6-0.6c0-0.2-0.1-0.2-0.2-0.2
		c-0.1,0-0.1,0-0.1,0l-2.7,3h-0.8l0.1,0.7L22.2,34l-0.9-1l0.1-0.9l-0.6,0.3l-2.3-2.5c0,0-0.1,0-0.1,0c-0.1,0-0.1,0-0.1,0.1
		c0,0.1,0,0.1,0,0.2l0.5,0.5l-0.8,0.8L18.2,31.8z M24.7,36.9c0.2-0.2,0.5-0.3,0.7-0.3c0.3,0,0.5,0.1,0.7,0.3
		c0.2,0.2,0.2,0.5,0.1,0.7c-0.1,0.3-0.2,0.5-0.5,0.7c-0.2,0.2-0.5,0.3-0.7,0.3c-0.3,0-0.5-0.1-0.7-0.3c-0.2-0.2-0.2-0.5-0.1-0.7
		C24.3,37.3,24.4,37.1,24.7,36.9z M20.6,38c-0.1,0.2-0.3,0.3-0.6,0.3c-0.3,0-0.6-0.1-0.8-0.3c-0.2-0.2-0.4-0.5-0.5-0.7
		c-0.1-0.3-0.1-0.5,0.1-0.7c0.1-0.2,0.3-0.3,0.6-0.3s0.6,0.1,0.8,0.3C20.7,37,20.9,37.6,20.6,38z"/>
	<path d="M24.2,37.6c-0.1,0.3,0,0.5,0.1,0.7c0.2,0.2,0.4,0.3,0.7,0.3c0.3,0,0.5-0.1,0.7-0.3c0.2-0.2,0.4-0.4,0.5-0.7
		c0.1-0.3,0-0.5-0.1-0.7c-0.2-0.2-0.4-0.3-0.7-0.3c-0.3,0-0.5,0.1-0.7,0.3C24.4,37.1,24.3,37.3,24.2,37.6z M24.3,37.6
		c0.1-0.2,0.2-0.5,0.4-0.6c0.2-0.2,0.5-0.2,0.7-0.2c0.2,0,0.5,0.1,0.6,0.3c0.1,0.2,0.2,0.4,0.1,0.6c-0.1,0.2-0.2,0.5-0.4,0.6
		c-0.2,0.2-0.5,0.2-0.7,0.2c-0.2,0-0.5-0.1-0.6-0.3C24.3,38,24.3,37.9,24.3,37.6z"/>
	<path d="M20.2,36.6c-0.2-0.2-0.5-0.3-0.8-0.3s-0.5,0.1-0.6,0.3c-0.1,0.2-0.2,0.5-0.1,0.7c0.1,0.3,0.2,0.5,0.5,0.7
		c0.2,0.2,0.5,0.3,0.8,0.3c0.3,0,0.5-0.1,0.6-0.3C20.9,37.6,20.7,37,20.2,36.6z M20.5,37.9c-0.1,0.2-0.3,0.2-0.6,0.2
		s-0.5-0.1-0.7-0.3c-0.2-0.2-0.4-0.4-0.5-0.6c-0.1-0.2-0.1-0.5,0.1-0.6c0.1-0.2,0.3-0.2,0.6-0.2c0.2,0,0.5,0.1,0.7,0.3
		C20.6,37,20.8,37.6,20.5,37.9z"/>
	<path style="fill:#CCCCCC;" d="M20.1,23.4c0,0.1,0,0.2,0,0.3c0,0.1,0.1,0.2,0.1,0.2c0.1,0.1,0.1,0.2,0.1,0.3c0,0.1,0,0.1,0,0.2
		c0,0.1,0.1,0.1,0.1,0.1s0.1-0.1,0.1-0.1c0-0.1,0-0.1,0-0.2c0-0.3,0.1-0.7,0.3-1c0,0.1-0.1,0.2-0.1,0.4c-0.1,0.2-0.1,0.5-0.1,0.8
		c0,0.1,0,0.1,0,0.1c0.1,0.1,0.1,0.1,0.2,0c0.1-0.1,0.1-0.1,0-0.2c0.1,0,0.1,0,0.1,0.1c0,0.1,0,0.1,0,0.2c0,0.1,0,0.1,0,0.2
		c0.1,0.1,0.1,0.1,0.2,0.1c0.1,0,0.1,0,0.1,0c0.1,0,0.1-0.1,0.1-0.1c0-0.3,0-0.6,0-0.8c0-0.3,0.1-0.6,0.2-0.8c0,0.3,0,0.7-0.1,1
		c0,0.2,0,0.3,0.1,0.5c0.1,0.1,0.1,0.1,0.2,0.1v-0.1c0.1-0.3,0.1-0.7,0.1-1.1c0-0.1,0-0.1,0-0.2s0.1-0.1,0.1-0.1
		c0,0.1,0,0.2-0.1,0.3c-0.1,0.3-0.1,0.6-0.1,0.9c0,0.1,0,0.1,0.1,0.2c0,0.1,0.1,0.1,0.1,0.1c0.1,0,0.1-0.1,0.1-0.1
		c0-0.5,0-0.9,0-1.3c0-0.1,0-0.1,0.1-0.2c0.1,0.1,0.1,0.2,0.1,0.3c-0.1,0.3-0.1,0.6,0,0.9c0,0.1,0,0.1,0.1,0.2
		c0.1,0.1,0.1,0.1,0.1,0v-0.1c0-0.4,0-0.7,0-1.1c0-0.1,0-0.1,0-0.1l0.1-0.1c0,0,0,0,0.1,0s0.1-0.1,0.1-0.1c0-0.1,0.1-0.2,0.1-0.2
		c0.1,0.1,0.1,0.3,0.1,0.4c0,0,0,0.1,0.1,0.1c0,0,0,0,0.1,0c0.1-0.1,0.1-0.2,0.1-0.2l0.1-0.1l0.1,0.1c0.1,0.2,0.1,0.4,0,0.6
		c-0.1,0.1-0.1,0.2-0.1,0.3c0,0.1,0,0.1,0,0.2c0,0.1,0,0.1,0,0.2c0,0.1,0,0.2,0.1,0.2c0.1,0.1,0.1,0,0.2-0.1s0.1-0.1,0.1-0.2
		c0-0.1,0-0.1,0-0.2c0,0,0,0,0.1-0.1c0.1,0,0.1,0.1,0.1,0.1s0,0.1,0.1,0.2c0.1,0.1,0.2,0,0.2-0.1c0.1-0.1,0-0.2,0-0.2
		c-0.1-0.2-0.1-0.5,0-0.7l0.1-0.1c0,0,0,0,0.1,0c0.1,0.1,0.1,0.1,0.1,0.2c0,0.1,0.1,0.2,0.2,0.1c0.1,0,0.1-0.1,0.1-0.1
		c0-0.1,0-0.2,0-0.2v-0.1c0,0-0.1,0-0.1-0.1c-0.1,0-0.1-0.1-0.1-0.1h-0.1c-0.1,0-0.1-0.1-0.1-0.1c0-0.2,0-0.3,0-0.5
		c0-0.1,0-0.1-0.1-0.1c-0.1,0-0.1,0.1-0.2,0.1c0,0,0,0,0-0.1c0-0.2,0.1-0.3,0-0.5c-0.2,0.2-0.2,0.4-0.2,0.6c0,0.1-0.1,0.1-0.1,0.1
		s-0.1-0.1-0.1-0.1c0-0.1,0.1-0.3,0.1-0.4c0-0.1,0-0.1,0-0.1c0-0.1-0.1-0.1-0.1-0.1c-0.1,0-0.1,0.1-0.1,0V22c0-0.1,0-0.3,0-0.4
		c0-0.1,0-0.1,0.1-0.1l0.1-0.1c0.1-0.1,0.1-0.2-0.1-0.3v-0.1c0-0.1-0.1-0.2-0.2-0.2c-0.1,0-0.1,0-0.1,0.1c0,0.1,0,0.1,0,0.2
		c0,0.1-0.1,0.1-0.1,0.1v-0.1c0-0.1,0-0.1,0-0.2c0-0.1-0.1-0.1-0.1-0.1c-0.1,0-0.1,0.1-0.1,0.2c0,0.1,0.1,0.1,0.1,0.2
		c0,0.1,0,0.1,0,0.1c0,0.1,0,0.2,0,0.3c0,0.1-0.1,0.2-0.1,0.1c-0.1,0-0.1-0.1-0.1-0.1c0-0.1-0.1-0.1-0.1-0.1c-0.1,0-0.1,0.1-0.1,0.1
		c0,0.1,0,0.1,0,0.2c0,0.1,0,0.1-0.1,0.1c-0.1,0.1-0.1-0.1-0.1-0.1c-0.1-0.2,0.1-0.3-0.1-0.5c-0.1,0.1-0.1,0.2-0.2,0.3l-0.1,0.1
		c0,0-0.1,0-0.1-0.1c0-0.1-0.1-0.1-0.1-0.2c-0.1,0.1-0.2,0.2-0.2,0.3c0,0.1,0.1,0.2,0,0.3v0.1c-0.1,0.1-0.1,0.1-0.2,0
		c-0.1-0.1-0.1-0.1-0.1-0.2c0-0.3,0.1-0.6,0-0.9c-0.1,0.1-0.1,0.1-0.2,0.2C21,21.4,21,21.5,21,21.6c0,0.2-0.1,0.5-0.1,0.7
		c-0.1-0.1-0.1-0.2-0.1-0.3c0-0.2,0-0.5,0.1-0.7c0-0.1,0.1-0.2,0-0.2L20.9,21c-0.1-0.1,0-0.1,0-0.2c0-0.1-0.1-0.2-0.1-0.1
		c0,0-0.1,0-0.1,0.1c-0.1,0.1-0.2,0.3-0.2,0.5c-0.1,0.2-0.2,0.5-0.2,0.7c-0.1,0.1-0.1,0.2-0.2,0.2L20,22.6
		C20.2,22.7,20.1,23.1,20.1,23.4z"/>
	<path style="fill:#CCCCCC;" d="M24,23.3C24,23.3,24,23.3,24,23.3C24,23.3,24,23.3,24,23.3z"/>
	<path style="fill:#CCCCCC;" d="M23.6,15.8C23.5,15.8,23.5,15.8,23.6,15.8C23.5,15.9,23.5,15.9,23.6,15.8
		C23.5,15.9,23.5,15.9,23.6,15.8c0,0.1,0.1,0,0.2,0c0,0-0.1,0-0.1-0.1C23.6,15.8,23.6,15.8,23.6,15.8z"/>
	<path style="fill:#CCCCCC;" d="M22.2,20c0-0.1-0.1-0.1-0.1-0.1H22c0.1,0,0.1,0,0.1,0c-0.1,0-0.1,0-0.1,0L22,19.9l0.1-0.1
		c-0.1,0-0.1,0-0.2,0c-0.1,0-0.1,0-0.2,0.1c-0.1,0-0.1,0-0.2,0.1c-0.1,0-0.1,0-0.1,0.1c-0.1,0-0.1,0.1-0.1,0.1l0.1,0.1
		c0.1,0,0.1,0,0.1,0c0.2,0,0.4-0.1,0.6-0.1C22.1,20,22.2,20,22.2,20z"/>
	<path d="M24.9,17.7c-0.1-0.3-0.3-0.3-0.4-0.4c0.2-0.6,0.1-1-0.1-1.3c-0.1-0.1-0.3-0.2-0.5-0.2c0.1-0.2,0.1-0.6-0.1-0.8
		c-0.2-0.2-0.5-0.3-1-0.2v-0.1c0-0.4-0.5-0.7-1-0.7c-0.5,0-0.9,0.3-1,0.6c-0.2-0.2-0.6-0.2-0.9,0c-0.4,0.2-0.6,0.7-0.4,1
		c-0.1,0-0.1,0-0.1,0c-0.5,0-0.9,0.3-0.9,0.8c0,0.3,0.2,0.5,0.4,0.7c-0.1,0.2-0.4,1.1,0.2,1.4c-0.1,0.2-0.2,1.4,1.3,1.9l-0.7,4.1
		c0,0,1,0.7,2.3,0.7c0.7,0,1.5-0.2,2.3-0.8c0.2-1.4-0.9-3.7-1-3.9C24.9,18.9,25.1,18.1,24.9,17.7z M23.7,20.1
		C23.7,20.1,23.6,20.1,23.7,20.1C23.7,20.1,23.7,20.1,23.7,20.1L23.7,20.1z M23.6,15.4c0.1,0,0.1-0.1,0.1-0.1s0.1-0.1,0.1-0.1
		c0,0,0,0,0.1,0.1c0.1,0.1,0,0.2-0.1,0.3c-0.1,0.1-0.2,0.1-0.3,0.1v-0.1c0-0.1,0-0.1,0-0.1v-0.1C23.5,15.4,23.6,15.4,23.6,15.4z
		 M23.7,15.9c-0.1,0-0.2,0-0.2,0.1v-0.1c0,0,0,0,0.1,0S23.6,15.9,23.7,15.9C23.7,15.8,23.7,15.8,23.7,15.9z M23.1,15.1
		c0.1-0.1,0.2-0.1,0.3-0.1c0.1,0,0.1,0.1,0.1,0.1c0,0.1-0.1,0.1-0.1,0.1s-0.1,0-0.1,0S23.2,15.2,23.1,15.1
		C23.1,15.2,23.1,15.2,23.1,15.1C23.1,15.1,23.1,15.1,23.1,15.1z M21.3,14.6C21.3,14.5,21.3,14.5,21.3,14.6
		C21.3,14.5,21.3,14.5,21.3,14.6c0.1,0,0.1,0,0.2,0l0.1-0.1c0.1-0.1,0.1-0.1,0.2-0.1c0,0,0.1,0,0.1,0.1c0,0.1,0,0.1-0.1,0.1
		l-0.1,0.1c-0.1,0.1-0.1,0.1-0.1,0.2c-0.1,0-0.1,0-0.1,0.1L21.3,15c0,0-0.1,0.1-0.1,0v-0.1C21.2,14.8,21.2,14.6,21.3,14.6z
		 M20.3,19.9C20.2,20,20.2,20,20.1,20S20,20,20,19.9c0-0.1-0.1-0.1-0.1-0.2c0-0.1,0.1-0.1,0.1-0.2c0.1-0.1,0.1-0.2,0-0.2
		c-0.1-0.1-0.2,0-0.3-0.1c-0.1-0.1-0.1-0.1-0.1-0.2c0-0.1,0-0.2,0.1-0.3c0-0.1,0.1-0.1,0-0.2c0,0-0.1,0-0.1,0c-0.1,0-0.1,0-0.1-0.1
		c0-0.1,0.1-0.1,0.1-0.1c0.1,0,0.1-0.1,0.1-0.1c-0.1,0-0.2,0-0.3-0.1c-0.1-0.1-0.1-0.1-0.1-0.2c0-0.1,0.1-0.2,0.2-0.3
		c0.1-0.1,0.1-0.1,0.1-0.1c0.1-0.1,0.1-0.1,0-0.2c-0.1,0-0.1,0-0.1-0.1c-0.1,0-0.1-0.1-0.1-0.1c0-0.1,0-0.1,0-0.2
		c0.1,0,0.1,0,0.1-0.1c0-0.1,0-0.1-0.1-0.1c-0.1,0-0.1-0.1-0.1-0.1c-0.1-0.1-0.1-0.1-0.1-0.2c0-0.1,0.1-0.2,0.1-0.2
		c0.1-0.1,0.2-0.1,0.2-0.2c0-0.1-0.1-0.1-0.1-0.2c0-0.1,0-0.1,0.1-0.1c0.1-0.1,0.1-0.1,0.1-0.2c0-0.1,0-0.1-0.1-0.2
		c0.1,0.1,0.1,0.1,0.1,0.1c0.1,0,0.1-0.1,0.1-0.1c0-0.1-0.1-0.1-0.1-0.1c0-0.1-0.1-0.2-0.1-0.3c0-0.1,0-0.2,0.1-0.2
		c0.1,0,0.1,0,0.1-0.1c0,0,0.1-0.1,0.1-0.1c0-0.1,0.1-0.1,0.1-0.1c0.1,0,0.1,0,0.2,0s0.1-0.1,0.1-0.1c0.1,0,0.1,0,0.1,0
		c0.1,0,0.2,0,0.2,0.1c0.1,0.1,0,0.2,0,0.2c0,0.1-0.1,0.2-0.1,0.2c0.1,0,0.1-0.1,0.1-0.1c0-0.1,0-0.1,0.1-0.2l0.1-0.1l0.1-0.1
		c0,0.1,0.1,0.1,0.1,0.1c0.1,0.1,0.1,0.1,0.2,0.1h0.1c0.1,0,0,0.2,0.1,0.2c0.1,0,0.1,0,0.1-0.1c0,0,0-0.1,0-0.1c0-0.1,0-0.1,0-0.2
		c0-0.1,0.1-0.1,0.1-0.1c0.1-0.1,0.2,0.1,0.3,0c0.1-0.1,0-0.2,0.1-0.3c0-0.1,0.1-0.1,0.1-0.1c0.1,0,0.1,0.1,0.1,0.1v0.1
		c0,0.1,0.1,0.1,0.1,0c0.1,0,0.1-0.1,0.1,0c0.1,0.1,0,0.1,0.1,0.2h0.1c0.1,0,0.1,0.1,0.1,0.1s-0.1,0.1-0.1,0.2
		c-0.1,0.1-0.2,0.1-0.2,0.2s0.1,0.1,0.1,0.1c0.1,0,0.1,0,0.2,0h0.1c0,0,0.1-0.1,0.1-0.1s0.1-0.1,0.1-0.2c0.1,0,0.2,0,0.2,0.1
		c0,0.1-0.1,0.1-0.1,0.2c0.1,0,0.1,0,0.1,0c0,0.1,0,0.1-0.1,0.2v0.1c0,0,0,0,0.1,0c0.1,0,0.1,0.1,0.1,0.1c0,0.1,0,0.1-0.1,0.1
		c-0.1,0-0.1,0-0.1,0S22.7,16,22.7,16c-0.1,0-0.1,0-0.2-0.1c-0.1-0.1-0.1-0.1-0.2-0.1c-0.1,0-0.2,0.1-0.2,0.2c0,0.1,0,0.2,0,0.3
		c0.1,0,0.1,0,0.1-0.1s0.1-0.1,0.1-0.1c0.1-0.1,0.2-0.1,0.2,0c0.1,0.1,0.1,0.1,0.1,0.1c0.1,0,0.1,0,0.1-0.1c0.1-0.1,0.1-0.1,0.1-0.1
		c0.1-0.1,0.2,0,0.2-0.1c0.1,0,0.1-0.1,0.1-0.1c0.1,0,0.2-0.1,0.2-0.1h0.1c0,0.1-0.1,0.1-0.1,0.2c0.2,0,0.3,0,0.5,0.1
		c0.1,0,0.1,0.1,0.1,0.1v0.1c0,0.1,0.1,0,0.1,0l0.1,0.1v0.1c0,0.1,0.1,0.1,0.1,0.1c0,0.2,0,0.3-0.1,0.6c-0.1,0-0.1,0-0.1,0.1
		c-0.1,0-0.1,0.1-0.1,0.1c0,0.1,0.1,0.1,0.1,0.1c0.1,0,0.1,0.1,0.2,0.1c0.1,0.1,0.1,0.3,0.1,0.4c0,0.1-0.1,0.3-0.2,0.4
		C24,18,24,17.7,23.9,17.6c-0.1-0.1-0.1-0.1-0.2-0.1c-0.1,0.1,0,0.3,0.1,0.4c-0.1,0-0.2-0.1-0.3-0.1c-0.1-0.1-0.2-0.1-0.3,0v0.1
		c0,0.1,0.1,0.1,0.1,0.1c0.2,0.1,0.3,0.2,0.6,0.3c0.1,0.1,0.2,0.1,0.2,0.2c0.1,0.1,0,0.2-0.1,0.3c0,0.1-0.1,0.1-0.1,0.1
		c-0.1,0-0.1,0-0.1,0c-0.1,0-0.1,0.1-0.1,0.2s0,0.1-0.1,0.2h-0.1c-0.1,0-0.2,0-0.2-0.1c-0.1-0.1,0.1-0.2,0.1-0.2
		c0.1-0.1,0.1-0.3,0.1-0.5c-0.1,0.1-0.3,0-0.3-0.2c-0.1,0.1-0.1,0.2-0.1,0.3c-0.1,0.1-0.1,0.2-0.2,0.2c-0.1,0-0.1,0-0.1,0
		c-0.1,0-0.2,0-0.3,0c-0.1,0-0.2,0-0.2,0.1c0,0.1,0.1,0.2,0,0.2c0,0-0.1,0-0.1,0.1c0.2,0.2,0.2,0.3,0.2,0.3c0,0.1,0.1,0.1,0.1,0.1
		c0-0.1,0-0.1,0.1-0.1c0.1-0.1,0.1-0.1,0.2-0.1s0.1,0,0.1,0v-0.1c0-0.1,0-0.1,0.1-0.1c0,0,0,0,0.1,0c0.1,0,0.1-0.1,0.1-0.1
		c0-0.1,0.1-0.1,0.1-0.1c0,0,0,0,0.1,0l0.1,0.1c0,0.1,0.1,0.1,0.1,0.1s0.1,0,0.1,0c0.1,0.1,0.1,0.1,0.1,0.2c0,0.2,0,0.4-0.1,0.6
		c0,0,0,0-0.1,0c-0.1-0.1-0.2-0.1-0.2-0.2v-0.1c0,0,0-0.1-0.1-0.1c-0.1,0-0.1,0-0.1,0c-0.1,0.1-0.1,0.1-0.1,0.1
		c-0.1,0.1-0.1,0.1-0.2,0c0-0.1-0.1-0.1-0.2-0.1c-0.1,0-0.2,0-0.2,0c-0.1,0-0.2,0-0.2-0.1c-0.1-0.1-0.2-0.1-0.2-0.1
		c-0.1,0-0.2,0.1-0.2,0.1c-0.1,0.1-0.1,0.1-0.1,0c-0.1,0-0.1-0.1-0.1-0.1c-0.1-0.1-0.2,0-0.3,0.1c0,0.1-0.1,0.1-0.1,0.1
		c0,0.1-0.1,0.1-0.1,0.1C20.8,19.7,20.5,19.8,20.3,19.9z M21.6,20.5c0.1,0,0.1-0.1,0.1-0.1c0.2-0.1,0.3-0.2,0.5-0.2
		c0.1,0,0.1,0.1,0.2,0c0.1,0,0.1-0.1,0.1-0.1s0.1,0,0.1,0.1c0,0.1-0.1,0.1-0.1,0.1c-0.1,0-0.1,0-0.2,0.1c-0.1,0.1-0.1,0.1-0.1,0.1
		c-0.1,0.1-0.1,0.1-0.2,0.1c-0.1,0-0.3,0.1-0.4,0.1c-0.1,0-0.1,0-0.1,0c-0.1,0-0.1-0.1-0.1-0.1C21.5,20.6,21.6,20.5,21.6,20.5z
		 M21.4,20.1c-0.1,0-0.1,0-0.1,0c-0.1,0-0.1,0-0.1-0.1s0-0.1,0.1-0.1c0.1,0,0.1-0.1,0.1-0.1c0.1,0,0.1,0,0.2-0.1
		c0.1,0,0.1,0,0.2-0.1c0.1,0,0.2,0,0.2,0h0.1c0.1,0,0.1,0.1,0.1,0.1S22.1,20,22.1,20C21.8,20.1,21.7,20.1,21.4,20.1z M22.8,24.6
		c0,0.1-0.1,0.1-0.1,0.1l-0.1-0.1c-0.1-0.2-0.1-0.3,0-0.5h0.1c0.1,0,0.1,0.1,0.1,0.1c0,0.1,0,0.1,0,0.1
		C22.8,24.4,22.8,24.5,22.8,24.6C22.8,24.6,22.8,24.6,22.8,24.6z M24,24.5c-0.1,0.1-0.1,0.1-0.1,0.1l-0.1-0.1
		c-0.1-0.2,0.2-0.3,0.2-0.2c0,0.1,0,0.1,0,0.1C24,24.3,24,24.4,24,24.5z M23.3,22.6c0.1-0.2,0.1-0.5,0.2-0.6c0.1,0.2-0.1,0.3,0,0.5
		v0.1c0.1,0.1,0.1-0.1,0.2-0.1c0.1,0,0.1,0.1,0.1,0.1c0,0.2,0,0.3,0,0.5c0,0.1,0,0.1,0.1,0.1h0.1c0.1,0,0.1,0.1,0.1,0.1h0.1v0.1
		c0,0.1,0,0.2,0,0.2c0,0.1,0,0.1-0.1,0.1c-0.1,0.1-0.2,0-0.2-0.1c0-0.1,0-0.2-0.1-0.2c0,0,0,0-0.1,0c-0.1,0-0.1,0.1-0.1,0.1
		c-0.1,0.2-0.1,0.5,0,0.7c0,0.1,0,0.2,0,0.2c-0.1,0.1-0.1,0.1-0.2,0.1c-0.1-0.1-0.1-0.1-0.1-0.2c0-0.1-0.1-0.1-0.1-0.1
		c0,0,0,0-0.1,0.1c-0.1,0.1,0,0.1,0,0.2c0,0.1,0,0.2-0.1,0.2c-0.1,0.1-0.1,0.1-0.2,0.1C23,24.5,23,24.5,23,24.4s0-0.1,0-0.2
		c0-0.1,0-0.1,0-0.2c0-0.1,0.1-0.2,0.1-0.3c0.1-0.2,0.1-0.4,0-0.6l-0.1-0.1c0,0-0.1,0-0.1,0.1c-0.1,0.1,0,0.2-0.1,0.2c0,0,0,0-0.1,0
		l-0.1-0.1c-0.1-0.1-0.1-0.3-0.1-0.4c-0.1,0.1-0.1,0.1-0.1,0.2c0,0.1,0,0.1-0.1,0.1h-0.1c-0.1,0-0.1,0-0.1,0.1c0,0,0,0.1,0,0.1
		c0,0.4,0,0.7,0,1.1v0.1c0,0.1-0.1,0.1-0.1,0c0-0.1-0.1-0.1-0.1-0.2c-0.1-0.3-0.1-0.6,0-0.9c0-0.1,0.1-0.3-0.1-0.3
		c-0.1,0.1-0.1,0.1-0.1,0.2c-0.1,0.5-0.1,0.9,0,1.3c0,0.1,0,0.1-0.1,0.1c-0.1,0.1-0.1,0-0.1-0.1c0-0.1-0.1-0.1-0.1-0.2
		c0-0.3,0-0.6,0.1-0.9c0-0.1,0.1-0.2,0.1-0.3c-0.1,0-0.1,0.1-0.1,0.1c0,0.1,0,0.1,0,0.2c0,0.3-0.1,0.7-0.1,1.1v0.1
		c-0.1,0.1-0.1,0-0.2-0.1c-0.1-0.2-0.1-0.3-0.1-0.5c0-0.3,0-0.7,0.1-1c-0.2,0.2-0.2,0.5-0.2,0.8c0,0.3,0.1,0.6,0,0.8
		c0,0.1,0,0.1-0.1,0.1c0,0-0.1,0-0.1,0c-0.1,0-0.2,0-0.2-0.1c0-0.1,0-0.1,0-0.2s0.1-0.1,0-0.2c0-0.1-0.1-0.1-0.1-0.1
		c0.1,0.1,0.1,0.1,0,0.2c-0.1,0.1-0.1,0-0.2,0c0-0.1,0-0.1,0-0.1c0-0.3,0-0.5,0.1-0.8c0.1-0.1,0.1-0.2,0.1-0.4
		c-0.2,0.3-0.3,0.6-0.3,1c0,0.1,0,0.1,0,0.2s-0.1,0.1-0.1,0.1c-0.1,0-0.1-0.1-0.1-0.1s0-0.1,0-0.2c0-0.1,0-0.2-0.1-0.3
		c-0.1-0.1-0.1-0.1-0.2-0.2c0-0.1-0.1-0.2,0-0.3c0-0.3,0.1-0.7,0.1-1l0.1-0.5c0.1,0,0.1-0.1,0.2-0.2c0.1-0.2,0.2-0.5,0.2-0.7
		c0.1-0.2,0.1-0.4,0.2-0.5l0.1-0.1c0.1,0,0.1,0.1,0.1,0.1c0,0.1,0,0.1,0,0.2l0.1,0.1c0.1,0.1,0,0.1,0,0.2C21,21.4,21,21.7,21,21.9
		c0,0.1,0,0.2,0.1,0.3c0-0.2,0.1-0.5,0.1-0.7c0-0.1,0-0.2,0.1-0.3c0.1-0.1,0.1-0.2,0.2-0.2c0.1,0.3,0,0.6,0,0.9c0,0.1,0,0.1,0.1,0.2
		c0.1,0.1,0.1,0.1,0.2,0v-0.1c0-0.1,0-0.2,0-0.3c0-0.1,0.1-0.2,0.2-0.3c0,0.1,0.1,0.1,0.1,0.2c0,0,0,0.1,0.1,0.1c0,0,0.1,0,0.1-0.1
		c0.1-0.1,0.1-0.2,0.2-0.3c0.1,0.1,0.1,0.3,0.1,0.5c0,0.1,0.1,0.1,0.1,0.1s0.1-0.1,0.1-0.1c0-0.1,0-0.1,0-0.2c0-0.1,0-0.1,0.1-0.1
		c0.1,0,0.1,0.1,0.1,0.1c0,0.1,0,0.1,0.1,0.1s0.1-0.1,0.1-0.1c0-0.1,0-0.2,0-0.3c0-0.1,0-0.1,0-0.1c0-0.1-0.1-0.1-0.1-0.2
		c0-0.1,0-0.1,0.1-0.2c0.1,0,0.1,0.1,0.1,0.1c0,0.1,0,0.1,0,0.2V21c0.1,0.1,0.1,0,0.1-0.1s0-0.1,0-0.2c0-0.1,0.1-0.1,0.1-0.1
		c0.1,0.1,0.2,0.1,0.2,0.2V21c0.1,0.1,0.1,0.2,0.1,0.3l-0.1,0.1c-0.1,0.1-0.1,0.1-0.1,0.1c-0.1,0.1-0.1,0.3,0,0.4V22
		c0.1,0,0.1,0,0.1,0c0.1,0,0.1,0,0.1,0.1c0,0.1,0,0.1,0,0.1c0,0.1-0.1,0.3-0.1,0.4C23.3,22.6,23.3,22.6,23.3,22.6
		C23.3,22.7,23.3,22.8,23.3,22.6z"/>
	<path d="M23.7,20.1C23.7,20.1,23.7,20.1,23.7,20.1C23.7,20.1,23.7,20.1,23.7,20.1C23.6,20.1,23.7,20.1,23.7,20.1z"/>
	<path d="M20.4,16.9c0,0,0.3-0.2,0.1-0.2c-0.3-0.1-0.4-0.6-0.4-0.6C20,16.1,19.8,16.8,20.4,16.9z"/>
	<path d="M21.5,16.9C21.4,17,21.4,17,21.3,17c-0.1,0-0.2,0.1-0.2,0.2c0,0.1,0,0.1,0,0.1c0,0.1,0,0.1-0.1,0.1c-0.1,0-0.1,0-0.1,0
		c-0.1,0.1-0.1,0.1-0.1,0.2c0,0.1,0,0.2,0,0.3c0.1,0,0.1-0.1,0.1-0.1c0-0.1,0.1-0.1,0.1-0.2c0-0.1,0.1-0.1,0.1-0.1
		c0.1,0,0.1,0,0.1,0c0.1,0,0-0.1,0.1-0.1c0-0.1,0.1-0.1,0.1-0.1c0.1,0,0.1,0,0.2,0c0.1,0.1,0.1,0.1,0.1,0.2c0.1-0.1,0.1-0.2-0.1-0.3
		c0,0-0.1,0-0.1-0.1c-0.1-0.1,0-0.1,0.1-0.2C21.6,17,21.6,16.9,21.5,16.9z"/>
	<path d="M22.8,16.7c0.1,0,0.1,0.1,0.1,0.1c0,0.1,0,0.1,0,0.2c0,0.1,0,0.2,0,0.2c0,0.1,0,0.1,0.1,0.1c0.1-0.1,0.1-0.3,0.1-0.4
		l0.1-0.1c0.1-0.1,0.1-0.1,0.1-0.2c0,0,0,0,0-0.1c-0.1,0-0.1,0-0.1-0.1c0-0.1,0-0.1-0.1-0.1c-0.1-0.1-0.1,0-0.2,0c0,0,0,0-0.1,0
		c0,0.1,0,0.1,0,0.1C22.7,16.7,22.7,16.7,22.8,16.7z"/>
	<path style="fill:#CCCCCC;" d="M23.4,15.4c0,0.1,0,0.1,0,0.1v0.1c0.1,0.1,0.2,0,0.3-0.1c0.1-0.1,0.1-0.2,0.1-0.3c0,0,0-0.1-0.1-0.1
		c-0.1,0-0.1,0-0.1,0.1c0,0.1-0.1,0.1-0.1,0.1C23.6,15.4,23.5,15.4,23.4,15.4C23.5,15.4,23.5,15.4,23.4,15.4
		C23.4,15.4,23.4,15.4,23.4,15.4z"/>
	<path style="fill:#CCCCCC;" d="M23.1,15.2c0.1,0,0.1,0,0.1,0c0.1,0,0.1,0,0.1,0c0.1,0,0.1,0,0.1-0.1s0-0.1-0.1-0.1
		C23.3,15,23.2,15.1,23.1,15.2L23.1,15.2C23.1,15.2,23.1,15.2,23.1,15.2z"/>
	<path style="fill:#CCCCCC;" d="M21.3,14.9L21.3,14.9c0.1-0.1,0.2-0.1,0.2-0.1c0.1-0.1,0.1-0.1,0.1-0.2l0.1-0.1c0,0,0.1-0.1,0.1-0.1
		c0,0,0,0-0.1-0.1c-0.1,0-0.1,0.1-0.2,0.1c0,0,0,0.1-0.1,0.1s-0.1,0-0.1,0c0,0,0,0-0.1,0c0,0-0.1,0-0.1,0.1
		c-0.1,0.1-0.1,0.2-0.1,0.3v0.1C21.3,14.9,21.3,14.9,21.3,14.9z"/>
	<path d="M20.2,18.1c0,0.1,0,0.1,0,0.2c0,0,0,0.1,0.1,0.1C20.3,18.2,20.3,18.1,20.2,18.1C20.2,18,20.2,18,20.2,18.1z"/>
	<path d="M20.8,18.5C20.7,18.5,20.7,18.4,20.8,18.5l-0.1-0.1h-0.1c-0.1,0-0.1,0-0.2,0h-0.1c0,0-0.1,0.1,0,0.1l0.1,0.1h0.1
		c0.1,0,0.1,0.1,0.1,0.1c0,0.1,0,0.1,0,0.1s0,0.1-0.1,0.1c0,0-0.1,0-0.1,0s-0.1,0-0.1,0s-0.1,0-0.1,0.1s0,0.1,0.1,0.1
		c0,0,0.1,0,0.1,0s0.1,0,0.1,0c0.1,0,0.1-0.1,0.2-0.1c0-0.1,0-0.1,0-0.1c0.1,0,0.1,0,0.1,0c0,0,0,0,0-0.1c0-0.1,0-0.1,0-0.1
		C20.8,18.5,20.8,18.5,20.8,18.5z"/>
	<path d="M21.3,18.6c-0.1,0-0.1,0-0.1,0c-0.1,0-0.1,0.1-0.1,0c0,0,0,0,0,0.1c0,0.1,0,0.2,0,0.3c0,0.1,0,0.1,0,0.2
		c0,0.1,0.1,0.1,0.1,0.1c0-0.1,0-0.1,0-0.1c0-0.1,0-0.1,0.1-0.1h0.1c0,0,0,0,0-0.1C21.3,18.9,21.3,18.8,21.3,18.6z"/>
	<path d="M21.8,18.1C21.8,18.1,21.8,18.1,21.8,18.1c0.1-0.2,0.1-0.3,0.2-0.5v-0.1c0,0-0.1-0.1-0.1,0C21.8,17.7,21.8,17.9,21.8,18.1
		L21.8,18.1z"/>
	<path d="M22.5,17.7L22.5,17.7c0.1,0,0.1,0,0.1,0c0.1,0,0.1-0.1,0.2-0.1c0.1-0.1,0.1-0.1-0.1-0.1C22.7,17.6,22.5,17.6,22.5,17.7
		C22.4,17.7,22.5,17.7,22.5,17.7z"/>
	<path d="M22.1,18.4C22.1,18.4,22.1,18.4,22.1,18.4C22,18.5,22,18.4,22,18.5c-0.1,0-0.1,0.1-0.2,0.2c0,0.1,0,0.2,0.1,0.2
		c0.1,0,0.1,0,0.1,0c0.1,0,0.1-0.1,0.1-0.1c0.1-0.1,0.1-0.1,0.1-0.1s0.1-0.1,0.1-0.1c0-0.1,0-0.1,0.1-0.1c0-0.1,0.1-0.1,0.1-0.1
		c0.1,0,0.1-0.1,0.1-0.1c0.1,0,0.1-0.1,0.1-0.1s-0.1-0.1-0.1-0.1C22.4,18.2,22.3,18.2,22.1,18.4C22.2,18.3,22.2,18.4,22.1,18.4z"/>
	<path d="M22,17c0,0.1,0,0.1,0,0.2c0.1,0.1,0.1,0,0.2,0h0.1c0.1,0,0.1-0.1,0.1-0.1c0-0.1,0-0.1,0-0.2c0-0.1,0.1-0.1,0.1-0.2
		c0-0.1-0.1-0.1-0.2,0C22.1,16.8,22.1,16.9,22,17z"/>
	<path d="M20.6,17.2C20.6,17.1,20.6,17.1,20.6,17.2c-0.1-0.1-0.1-0.1-0.1-0.1c-0.1,0-0.1,0-0.1,0.1c-0.1,0.1-0.1,0.2-0.1,0.3
		c0,0.1-0.1,0.1-0.1,0.1c0,0.1-0.1,0.1-0.1,0.1c0,0.1,0,0.1,0,0.1l0.1,0.1c0,0,0,0,0.1,0c0.1-0.1,0.1-0.1,0.1-0.1h0.1v-0.1
		c0-0.1,0-0.2,0-0.3C20.6,17.2,20.6,17.2,20.6,17.2z"/>
	<path d="M22.1,15.4c0-0.1,0-0.1,0.1-0.1c0-0.1,0.1-0.1,0.1-0.2V15c-0.1-0.1-0.1,0-0.1,0C22,15.1,22,15.2,22,15.3
		C22,15.3,22,15.3,22.1,15.4L22.1,15.4C22,15.5,22.1,15.4,22.1,15.4z"/>
	<path d="M22,16c0,0.1,0,0.1-0.1,0.1c0,0.1,0,0.1,0.1,0.1h0.1c0,0,0-0.1,0.1-0.1c0-0.1,0-0.1,0.1-0.2l0.1-0.1c0-0.1,0-0.1,0-0.1
		c0-0.1-0.1-0.1-0.1-0.1c-0.1,0-0.1,0-0.1,0.1C22,15.7,22,15.7,22,15.8c0,0,0,0,0,0.1C22,15.8,22,15.9,22,16C22,15.9,22,15.9,22,16z
		"/>
	<path d="M23.7,17.3c0.1-0.1,0.1-0.1,0.1-0.2V17c0,0,0,0-0.1-0.1c0,0-0.1-0.1-0.1-0.1c0-0.1,0.1-0.1,0-0.2h-0.1c0,0-0.1,0-0.1,0.1
		v0.1c0,0.1,0,0.2-0.1,0.3c0,0.1,0,0.1,0,0.1C23.6,17.3,23.7,17.3,23.7,17.3z"/>
	<path d="M24.1,17c0.1-0.1,0.2-0.1,0.2-0.2c0.1-0.1,0.1-0.1,0.1-0.2c-0.1,0-0.2,0.1-0.2,0.1C24.1,16.9,24.1,16.9,24.1,17
		C24.1,17,24.1,17,24.1,17C24.1,17,24.1,17,24.1,17z"/>
	<path d="M22.9,18.5c-0.1,0.1-0.1,0.2,0.1,0.2c0.1,0,0.2-0.1,0.2-0.2c0.1-0.1,0-0.1-0.1-0.1C23,18.4,22.9,18.5,22.9,18.5z"/>
	<path style="fill:#CCCCCC;" d="M22.5,20.2c-0.1,0-0.1,0-0.1,0.1c-0.1,0-0.1,0-0.2,0c-0.2,0-0.4,0.1-0.5,0.2
		c-0.1,0.1-0.1,0.1-0.1,0.1c-0.1,0-0.1,0.1-0.1,0.1c0,0.1,0,0.1,0.1,0.1c0.1,0,0.1,0,0.1,0c0.1,0,0.3-0.1,0.4-0.1
		c0.1,0,0.1,0,0.2-0.1c0.1-0.1,0.1-0.1,0.1-0.1c0.1-0.1,0.1-0.1,0.2-0.1s0.1,0,0.1-0.1C22.7,20.3,22.6,20.2,22.5,20.2z"/>
	<path style="fill:#CCCCCC;" d="M23.8,24.4L23.8,24.4c0.1,0.1,0.1,0.1,0.2,0.1c0-0.1,0-0.1,0-0.1c0-0.1,0-0.1,0-0.1
		C24,24.1,23.7,24.2,23.8,24.4z"/>
	<path style="fill:#CCCCCC;" d="M22.8,24.2C22.8,24.1,22.8,24.1,22.8,24.2l-0.1-0.1c0,0.2-0.1,0.3,0,0.5c0,0,0,0.1,0.1,0.1
		s0.1,0,0.1-0.1c0-0.1,0-0.1,0-0.1C22.9,24.4,22.9,24.3,22.8,24.2C22.8,24.2,22.8,24.2,22.8,24.2z"/>
	<path style="fill:#CCCCCC;" d="M24.5,17.6c-0.1-0.1-0.1-0.1-0.2-0.1c-0.1,0-0.1-0.1-0.1-0.1c0-0.1,0.1-0.1,0.1-0.1
		c0.1,0,0.1,0,0.1-0.1c0.1-0.2,0.1-0.5,0.1-0.6c-0.1,0-0.1-0.1-0.1-0.1v-0.1c0,0,0-0.1-0.1-0.1s-0.1,0-0.1,0v-0.1
		c0-0.1-0.1-0.1-0.1-0.1c-0.2-0.1-0.3,0-0.5-0.1c0-0.1,0.1-0.1,0.1-0.2c0,0-0.2,0.1-0.3,0.1c0,0.1,0,0.1-0.1,0.1
		c-0.1,0.1-0.2,0-0.2,0.1c-0.1,0-0.1,0.1-0.1,0.1c-0.1-0.1-0.1-0.1-0.2-0.1c-0.1,0-0.1-0.1-0.1-0.1c-0.1-0.1-0.2-0.1-0.2,0
		c-0.1,0.1-0.1,0.1-0.1,0.1c0,0.1-0.1,0.1-0.1,0.1c0-0.1-0.1-0.2,0-0.3c0-0.1,0.1-0.2,0.2-0.2c0.1,0,0.1,0.1,0.2,0.1
		c0.1,0.1,0.1,0.1,0.2,0.1c0-0.1,0.1-0.2,0.1-0.2c0.1,0,0.1,0,0.1,0s0.1-0.1,0.1-0.1c0-0.1-0.1-0.1-0.1-0.1h-0.1v-0.1
		c0-0.1,0-0.1,0.1-0.2c-0.1,0-0.1,0-0.1,0c0-0.1,0.1-0.1,0.1-0.2c0-0.1-0.1-0.1-0.2-0.1c-0.1,0-0.1,0.1-0.1,0.2c0,0.1,0,0.1-0.1,0.1
		h-0.1c-0.1,0-0.1,0-0.2,0s-0.1-0.1-0.1-0.1c0-0.1,0.1-0.1,0.2-0.2c0.1-0.1,0.1-0.1,0.1-0.2c0-0.1,0-0.1-0.1-0.1h-0.1
		c-0.1-0.1,0-0.1-0.1-0.2c-0.1-0.1-0.1,0-0.1,0c-0.1,0-0.1,0.1-0.1,0v-0.1c0-0.1-0.1-0.1-0.1-0.1c-0.1,0-0.1,0-0.1,0.1
		c-0.1,0.1,0,0.3-0.1,0.3c-0.1,0.1-0.2,0-0.3,0S21.6,15,21.6,15c0,0.1,0,0.1,0,0.2c0,0.1,0,0.1,0,0.1l-0.1,0.1c-0.1,0,0-0.2-0.1-0.2
		h-0.1c-0.1,0-0.1,0-0.2-0.1c0,0-0.1-0.1-0.1-0.1L21.1,15L21,15.1C21,15.2,21,15.2,21,15.3s-0.1,0.1-0.1,0.1c-0.1-0.1,0-0.2,0.1-0.2
		c0-0.1,0.1-0.2,0-0.2c-0.1-0.1-0.1-0.1-0.2-0.1c-0.1,0-0.1,0-0.1,0c-0.1,0-0.1,0.1-0.1,0.1s-0.1,0-0.2,0c-0.1,0-0.1,0-0.1,0.1
		s0,0.1-0.1,0.1c0,0-0.1,0-0.1,0.1C20,15.2,20,15.2,20,15.3c0,0.1,0.1,0.2,0.1,0.3c0,0.1,0,0.1,0.1,0.1c0,0.1-0.1,0.1-0.1,0.1
		c-0.1,0-0.1,0-0.1-0.1c0.1,0.1,0.1,0.1,0.1,0.2c0,0.1-0.1,0.1-0.1,0.2l-0.1,0.1c0,0.1,0.1,0.1,0.1,0.2c0,0.1-0.1,0.1-0.2,0.2
		c-0.1,0.1-0.1,0.1-0.1,0.2s0.1,0.2,0.1,0.2c0.1,0,0.1,0.1,0.1,0.1c0.1,0,0.1,0.1,0.1,0.1c0,0.1-0.1,0.1-0.1,0.1c0,0.1,0,0.1,0,0.2
		s0.1,0.1,0.1,0.1c0.1,0,0.1,0,0.1,0.1c0.1,0.1,0.1,0.1,0,0.2c-0.1,0.1-0.1,0.1-0.1,0.1c-0.1,0.1-0.2,0.2-0.2,0.3
		c0,0.1,0,0.1,0.1,0.2c0.1,0.1,0.2,0.1,0.3,0.1c0,0.1,0,0.1-0.1,0.1c-0.1,0-0.1,0.1-0.1,0.1c0,0.1,0.1,0.1,0.1,0.1
		c0.1,0,0.1,0,0.1,0c0.1,0.1,0,0.1,0,0.2C20,18.9,20,19,20,19.2c0,0.1,0,0.1,0.1,0.2c0.1,0.1,0.2-0.1,0.3,0.1c0.1,0.1,0,0.1,0,0.2
		c-0.1,0.1-0.1,0.1-0.1,0.2c0,0.1,0,0.1,0.1,0.2c0,0.1,0.1,0.1,0.2,0.1s0.1-0.1,0.2-0.1c0.2-0.1,0.5-0.2,0.7-0.1
		c0.1,0,0.1,0,0.1-0.1c0-0.1,0.1-0.1,0.1-0.1c0.1-0.1,0.2-0.1,0.3-0.1c0,0.1,0,0.1,0.1,0.1c0.1,0,0.1,0,0.1,0
		c0.1-0.1,0.2-0.1,0.2-0.1c0.1,0,0.2,0,0.2,0.1c0.1,0.1,0.1,0.1,0.2,0.1c0.1,0,0.2,0,0.2,0c0.1,0,0.2,0.1,0.2,0.1
		c0,0.1,0.1,0.1,0.2,0c0.1-0.1,0.1-0.1,0.1-0.1c0.1,0,0.1,0,0.1,0c0.1-0.1,0.1-0.1,0,0c0,0,0,0,0.1,0.1v0.1c0,0.1,0.1,0.2,0.2,0.2
		c0,0,0,0,0.1,0c0.1-0.2,0.1-0.4,0.1-0.6c0-0.1,0-0.1-0.1-0.2c-0.1,0-0.1,0-0.1,0s-0.1-0.1-0.1-0.1c0,0,0-0.1-0.1-0.1c0,0,0,0-0.1,0
		c-0.1,0-0.1,0.1-0.1,0.1c0,0.1,0,0.1-0.1,0.1c0,0,0,0-0.1,0c-0.1,0-0.1,0.1-0.1,0.1v0.1c0,0-0.1,0-0.1,0c-0.1,0-0.1,0-0.2,0.1
		c-0.1,0.1-0.1,0.1-0.1,0.1c-0.1,0-0.1-0.1-0.1-0.1c0-0.1,0-0.1,0.1-0.2c0,0,0.1,0,0.1-0.1c0.1-0.1,0-0.2,0-0.2
		c0-0.1,0.2-0.1,0.2-0.1c0.1,0,0.2,0,0.3,0c0.1,0,0.1,0,0.1,0c0.1-0.1,0.2-0.1,0.2-0.2c0.1-0.1,0.1-0.2,0.1-0.3
		c0,0.1,0.2,0.2,0.3,0.2c0.1,0.2,0,0.3-0.1,0.5c-0.1,0.1-0.1,0.1-0.1,0.2c0.1,0.1,0.1,0.1,0.2,0.1h0.1c0.1-0.1,0.1-0.1,0.1-0.2
		s0-0.1,0.1-0.2c0.1,0,0.1,0,0.1,0c0.1,0,0.1-0.1,0.1-0.1c0.1-0.1,0.1-0.2,0.1-0.3c-0.1-0.1-0.2-0.2-0.2-0.2
		c-0.2-0.1-0.3-0.2-0.6-0.3c-0.1,0-0.1-0.1-0.1-0.1v-0.1c0.1-0.1,0.2-0.1,0.3,0C24,18,24.1,18,24.2,18c-0.1-0.1-0.1-0.3-0.1-0.4
		c0.1,0,0.1,0.1,0.2,0.1c0.1,0.2,0.2,0.4,0.2,0.6c0.1-0.1,0.2-0.2,0.2-0.4C24.7,17.8,24.7,17.6,24.5,17.6z M21.3,16.5
		c0.2-0.6-0.9-0.8-0.9-0.8S21.7,15.4,21.3,16.5z M20,16c0,0,0.2,0.5,0.4,0.6c0.3,0.1-0.1,0.2-0.1,0.2C19.8,16.8,20,16.1,20,16z
		 M20.5,17.6C20.5,17.6,20.5,17.6,20.5,17.6C20.5,17.6,20.5,17.6,20.5,17.6c-0.1,0.1-0.2,0.1-0.2,0.1c0,0,0,0-0.1,0
		c-0.1,0-0.1,0-0.1-0.1c0,0,0-0.1,0-0.1c0-0.1,0-0.1,0.1-0.1c0-0.1,0.1-0.1,0.1-0.1c0.1-0.1,0-0.2,0.1-0.3c0,0,0.1-0.1,0.1-0.1
		c0,0,0,0,0.1,0c0.1,0,0.1,0.1,0.1,0.1c0,0.1,0,0.1,0,0.1C20.5,17.4,20.5,17.4,20.5,17.6z M20.2,18.3C20.2,18.4,20.2,18.3,20.2,18.3
		c-0.1-0.1-0.1-0.1-0.1-0.2c0-0.1,0-0.1,0.1-0.1C20.3,18.1,20.3,18.2,20.2,18.3z M20.8,18.6C20.8,18.7,20.8,18.7,20.8,18.6
		c-0.1,0.1-0.1,0.1-0.1,0.1c-0.1,0,0,0.1,0,0.1s-0.1,0.1-0.2,0.1c-0.1,0-0.1,0-0.1,0s-0.1,0-0.1,0l-0.1-0.1l0.1-0.1h0.1
		c0.1,0,0.1,0,0.1,0s0.1-0.1,0.1-0.1c0-0.1,0-0.1,0-0.1c0-0.1-0.1-0.1-0.1-0.1h-0.1c0,0-0.1,0-0.1-0.1v-0.1h0.1c0.1,0,0.1,0,0.2,0
		h0.1v0.1c0,0,0,0.1,0.1,0.1c0,0,0,0,0.1,0S20.8,18.6,20.8,18.6C20.9,18.6,20.8,18.6,20.8,18.6z M21.3,19C21.3,19,21.3,19,21.3,19
		c-0.1,0.1-0.1,0.1-0.1,0.1c-0.1,0-0.1,0.1-0.1,0.1c0,0.1,0,0.1,0,0.1c-0.1-0.1-0.1-0.1-0.1-0.1s0-0.1,0-0.2c0-0.1,0-0.2,0-0.3v-0.1
		c0.1,0,0.1,0,0.1,0c0.1,0,0.1-0.1,0.1-0.1C21.3,18.8,21.3,18.9,21.3,19z M21.6,17.5c-0.1-0.1-0.1-0.1-0.1-0.2
		c-0.1-0.1-0.1-0.1-0.2,0c-0.1,0-0.1,0.1-0.1,0.1s0,0.1-0.1,0.1c0,0-0.1,0-0.1,0c-0.1,0-0.1,0.1-0.1,0.1c0,0.1,0,0.1-0.1,0.2
		c0,0.1-0.1,0.1-0.1,0.1c0-0.1,0-0.2,0-0.3c0-0.1,0-0.2,0.1-0.2c0.1,0,0.1,0,0.1,0c0.1,0,0.1-0.1,0.1-0.1c0-0.1,0-0.1,0-0.1
		c0-0.1,0.1-0.1,0.2-0.2c0.1,0,0.2-0.1,0.2-0.2c0.1,0.1,0.1,0.1,0.1,0.2c0,0.1-0.1,0.1-0.1,0.2c0,0,0,0,0.1,0.1
		C21.6,17.3,21.7,17.4,21.6,17.5z M22.7,16.6C22.7,16.6,22.7,16.6,22.7,16.6C22.7,16.6,22.7,16.6,22.7,16.6c0.1,0,0.2-0.1,0.2-0.1
		c0.1,0,0.1,0.1,0.1,0.1s0.1,0.1,0.1,0.1c0,0,0,0,0,0.1c0,0.1,0,0.1-0.1,0.2L22.9,17c-0.1,0.1-0.1,0.3-0.1,0.4c0,0-0.1-0.1-0.1-0.1
		s0-0.2,0-0.2c0-0.1,0.1-0.1,0-0.2c0-0.1-0.1-0.1-0.1-0.1h-0.1C22.7,16.7,22.7,16.6,22.7,16.6z M22.4,16.7c0,0.1-0.1,0.1-0.1,0.2
		c0,0.1,0,0.1,0,0.2c0,0.1,0,0.1-0.1,0.1h-0.1c-0.1,0-0.1,0.1-0.2,0C22,17,22,17,22,16.9c0-0.1,0.1-0.2,0.2-0.3
		C22.3,16.7,22.4,16.6,22.4,16.7z M22,15.3c0-0.1,0-0.2,0.1-0.2c0.1-0.1,0.1-0.1,0.1,0v0.1c0,0.1-0.1,0.1-0.1,0.2
		c0,0.1,0,0.1-0.1,0.1c0,0.1-0.1,0.1-0.1,0v-0.1C22,15.4,22,15.3,22,15.3z M22,15.8c0-0.1,0.1-0.1,0.1-0.1c0.1-0.1,0.1-0.1,0.1-0.1
		s0.1,0.1,0.1,0.1c0,0.1,0,0.1,0,0.1l-0.1,0.1c-0.1,0.1-0.1,0.1-0.1,0.2c0,0.1,0,0.1-0.1,0.1c0,0-0.1,0.1-0.1,0l-0.1-0.1
		c0-0.1,0-0.1,0.1-0.1C22,15.9,22,15.9,22,15.8C22,15.8,22,15.8,22,15.8z M21.8,18c0-0.2,0.1-0.3,0.1-0.5H22v0.1
		C21.9,17.8,21.9,17.9,21.8,18c0.1,0.1,0.1,0.1,0,0.1C21.8,18.1,21.8,18.1,21.8,18z M22.6,18.2c-0.1,0-0.1,0.1-0.1,0.1
		c-0.1,0-0.1,0.1-0.1,0.1c0,0.1,0,0.1-0.1,0.1c0,0.1-0.1,0.1-0.1,0.1c-0.1,0.1-0.1,0.1-0.1,0.1c0,0.1-0.1,0.1-0.1,0.1
		c-0.1,0-0.1,0.1-0.1,0c-0.1,0-0.1-0.1-0.1-0.2c0-0.1,0.1-0.2,0.2-0.2c0.1,0,0.1,0,0.1-0.1c0,0,0-0.1,0.1-0.1c0-0.1,0.1-0.1,0.1-0.1
		c0.1-0.1,0.2-0.2,0.3-0.2c0.1,0,0.1,0,0.1,0.1C22.7,18.2,22.6,18.2,22.6,18.2z M22.6,17.7c-0.1,0-0.1,0-0.1,0c0,0-0.1,0-0.1-0.1
		c0-0.1,0.2-0.1,0.3-0.1c0.1,0,0.2,0.1,0.1,0.1C22.7,17.6,22.7,17.6,22.6,17.7z M23.2,18.5c0,0.1-0.2,0.2-0.2,0.2
		c-0.1,0.1-0.1-0.1-0.1-0.2c0.1-0.1,0.1-0.1,0.2-0.1C23.2,18.4,23.2,18.4,23.2,18.5z M23.7,17.3c-0.1,0.1-0.1,0-0.2-0.1
		c0-0.1,0-0.1,0-0.1c0-0.1,0-0.2,0.1-0.3v-0.1l0.1-0.1h0.1c0,0.1,0,0.1,0,0.2c0,0.1,0,0.1,0.1,0.1c0,0,0,0,0.1,0.1v0.1
		C23.9,17.2,23.8,17.2,23.7,17.3z M24.2,17C24.1,17,24.1,17,24.2,17c-0.1,0-0.1,0-0.1,0V17c0-0.1,0-0.1,0.1-0.2
		c0.1-0.1,0.1-0.1,0.2-0.1c0,0.1,0,0.1-0.1,0.2C24.3,16.9,24.2,17,24.2,17z"/>
	<path d="M21.3,16.5c0.5-1.1-0.9-0.8-0.9-0.8S21.5,16,21.3,16.5z"/>
	<path d="M23.9,38.5c-0.3-0.5-0.2-1.1,0.3-1.7l-2-2.2l-1.5,1.7c0.6,0.5,0.8,1.3,0.5,1.8c-0.2,0.3-0.6,0.5-1,0.5
		c-0.3,0-0.7-0.1-1.1-0.3c-0.4-0.2-0.6-0.6-0.8-1c-0.1-0.4-0.1-0.7,0.1-1c0.2-0.3,0.6-0.5,1-0.5c0.3,0,0.6,0.1,0.9,0.2l1.6-1.8
		l-0.9-1h-0.6v-0.6l-0.7-0.8l-0.7,0.7l-0.3-0.4l0.7-0.7L19,31.3l-0.7,0.7l-0.5-0.5l0.7-0.7l-0.4-0.4c-0.1-0.1-0.1-0.2,0-0.3
		c0.1-0.1,0.1-0.1,0.2-0.1c0.1,0,0.1,0,0.2,0l2.3,2.4l0.7-0.3l-0.1,1l0.8,0.9l0.5-0.6l-0.1-0.8h0.9l2.7-2.9c0,0,0.1,0,0.1,0
		c0.1,0,0.3,0.1,0.3,0.3l-0.6,0.6l0.6,0.6v0.4h-0.3L25.7,31l-0.2,0.2l0.1,0.4L26,32v0.3l-0.3,0.1L25.2,32l-0.4-0.1l-1,1v0.9
		l-0.7-0.1l-0.5,0.6c1.5,1.7,1.9,2.1,2.1,2.2c0.3-0.2,0.6-0.2,0.9-0.2c0.5,0,0.8,0.2,1,0.5c0.4,0.6,0.1,1.4-0.7,1.9
		c-0.3,0.2-0.7,0.3-1,0.3C24.4,39,24.1,38.8,23.9,38.5z M24.6,36.7l-2.2-2.3l0.6-0.7l0.6,0.1V33l1-1.1l0.5,0.1l0.5,0.4l0.2-0.1v-0.2
		l-0.5-0.4v-0.5l0.3-0.3l0.7,0.7h0.2v-0.2l-0.7-0.7l0.6-0.6c0-0.2-0.1-0.2-0.2-0.2c-0.1,0-0.1,0-0.1,0l-2.7,3h-0.8l0.1,0.7L22.2,34
		l-0.9-1l0.1-0.9l-0.6,0.3l-2.3-2.5c0,0-0.1,0-0.1,0c-0.1,0-0.1,0-0.1,0.1c0,0.1,0,0.1,0,0.2l0.5,0.5l-0.8,0.8l0.3,0.3l0.7-0.7
		l0.3,0.4l-0.7,0.7l0.2,0.2l0.7-0.7l0.9,0.9v0.6h0.5l1,1l-1.7,1.9C19.9,36,19.6,36,19.3,36c-0.4,0-0.7,0.2-0.9,0.5
		c-0.2,0.3-0.2,0.6-0.1,1c0.1,0.3,0.4,0.7,0.7,0.9c0.3,0.2,0.7,0.3,1,0.3c0.4,0,0.7-0.2,0.9-0.5c0.3-0.5,0.1-1.3-0.5-1.8l1.7-1.8
		l2.2,2.3c-0.5,0.5-0.7,1.1-0.4,1.6c0.2,0.3,0.5,0.5,1,0.5c0.3,0,0.6-0.1,0.9-0.3c0.7-0.5,1-1.3,0.6-1.8c-0.2-0.3-0.5-0.5-0.9-0.5
		C25.2,36.4,24.9,36.5,24.6,36.7z"/>
	<path d="M24.3,38.3c-0.2-0.2-0.2-0.5-0.1-0.7c0.1-0.3,0.2-0.5,0.5-0.7c0.2-0.2,0.5-0.3,0.7-0.3c0.3,0,0.5,0.1,0.7,0.3
		c0.2,0.2,0.2,0.5,0.1,0.7c-0.1,0.3-0.2,0.5-0.5,0.7c-0.2,0.2-0.5,0.3-0.7,0.3C24.8,38.6,24.5,38.5,24.3,38.3z M24.7,37
		c-0.2,0.2-0.3,0.4-0.4,0.6c-0.1,0.2,0,0.5,0.1,0.6c0.1,0.2,0.3,0.3,0.6,0.3c0.2,0,0.5-0.1,0.7-0.2c0.2-0.2,0.3-0.4,0.4-0.6
		c0.1-0.2,0-0.5-0.1-0.6c-0.1-0.2-0.3-0.3-0.6-0.3C25.2,36.7,24.9,36.8,24.7,37z"/>
	<path d="M19.2,38c-0.2-0.2-0.4-0.5-0.5-0.7c-0.1-0.3-0.1-0.5,0.1-0.7c0.1-0.2,0.3-0.3,0.6-0.3c0.3,0,0.6,0.1,0.8,0.3
		c0.5,0.4,0.7,1,0.4,1.4c-0.1,0.2-0.3,0.3-0.6,0.3S19.4,38.2,19.2,38z M18.9,36.6c-0.1,0.2-0.2,0.4-0.1,0.6c0.1,0.2,0.2,0.5,0.5,0.6
		c0.2,0.2,0.5,0.3,0.7,0.3s0.5-0.1,0.6-0.2c0.3-0.3,0.1-0.9-0.4-1.3c-0.2-0.2-0.5-0.3-0.7-0.3S19,36.5,18.9,36.6z"/>
	<path d="M36.8,35c-1.3-0.3-1.3-1-1.3-1v-0.7l3.4-1.3l-3.3-0.2l-3.4-0.3l-1.2,1l0.2,0.3l0.5,0.6l-1.1,1.4l-0.2,2.5l4.8,0.6l1.9-0.5
		L36.8,35z M35.4,34c0,0.1,0.1,0.7,1.2,1.1L35,35.4c-0.9-0.7-0.9-1.2-0.9-1.2v-0.7H35h0.1l0.3-0.1V34z M31.1,32.5l4.1,0.2L35,33.3
		h-3.4l-0.3-0.4L31.1,32.5z M35.3,32.7l2.7-0.6l-2.9,1.1L35.3,32.7z M34,33.4v0.7c0,0-0.1,0.5,0.7,1.2l-4.2-0.5l1-1.4L34,33.4
		L34,33.4z M35.6,31.8l2.6,0.2l-2.9,0.6L35.6,31.8z M32.2,31.5l3.4,0.3l-0.3,0.8l-4.2-0.3L32.2,31.5z M30.4,37.1l0.1-2.2l4.4,0.6
		l0.1,2.3L30.4,37.1z M35,37.7L35,35.4l1.7-0.3l0.1,2.1L35,37.7z"/>
	<path d="M38.5,21.4c-0.2-0.1-0.6-0.1-0.6-0.1h-0.1l-0.6,0.8C37.1,22,36.9,22,36.8,22c0.3-0.8,0.3-0.9,0.3-0.9h-0.1
		C36.7,21,36.4,21,36,21H36l0.2,0.9c-0.3-0.1-0.6-0.1-0.9-0.1c0.1-0.8,0.1-0.8,0.1-0.8v-0.1h-0.1c-0.1,0-0.2,0-0.3,0
		c-0.5-0.8-1.3-1.4-2.2-1.6c1.1-0.5,2.1-1.4,2.6-2.6h0.1h0.1c0.1,0,0.1,0,0.2,0c0.2,0,0.3-0.1,0.4-0.1c0.1-0.1,0.1-0.1,0.2-0.2
		l0.7,0.8l-0.2,0.2l0.1,0.1l0.8-0.7l1.3-0.1l-1.4-1.5v1.5l-0.1,0.1l-1-1c-0.1-0.3-0.2-1-0.2-1v-0.1l-0.5,0.4l-1-1l-0.5,0.4l1,1
		c0,0-0.7,0.8-1.1,1.1c-0.1,0.1-0.3,0.2-0.4,0.3c-0.5,0.3-0.9,0.6-1.4,0.8c-0.2,0.1-0.4,0.2-0.6,0.3c-0.1,0.1-0.4,0.2-0.6,0.4
		c-0.2,0.2-0.3,0.7-0.1,1c0.1,0.3,0.3,0.5,0.5,0.7c0.2,0.3,0.5,0.6,0.7,0.8h0.7v-0.1h-0.7c-0.3-0.2-0.5-0.5-0.7-0.7
		c-0.2-0.2-0.3-0.5-0.5-0.7c-0.2-0.3-0.1-0.7,0.1-0.9c0.2-0.2,0.4-0.3,0.6-0.4c0.2-0.1,0.4-0.2,0.6-0.3c0.5-0.2,1-0.5,1.4-0.8
		c0.1-0.1,0.2-0.2,0.4-0.3c0.3-0.3,0.6-0.6,0.9-0.9c0,0.2,0,0.7,0,0.9c-0.5,1.2-1.5,2.2-2.7,2.7l-0.2,0.1l0.2,0.1
		c0.9,0.2,1.7,0.7,2.2,1.5c-0.3,0-0.6,0-0.6,0h-0.1v0.9c-0.2,0-0.5,0-0.7,0V21h-0.1v0.8c-0.2,0-0.5,0-0.7,0l-0.1-0.4h-0.1l0.1,0.4
		c-0.5,0-0.9,0.1-1.2,0.1c0-0.2,0-0.8,0-0.8h-0.1c-0.8,0.1-1.3,0.2-1.3,0.2h-0.1l0.7,2.4c-0.6,0.1-0.9,0.3-1,0.3h-0.1l0.5,1h0.1
		c0,0,1.4-0.4,3.4-0.4c1.4,0,2.8,0.2,4.1,0.6h0.1l0.5-1h-0.1c-0.3-0.1-0.6-0.2-0.9-0.2L38.5,21.4z M38.7,16.6l-1,0.1v-1.3L38.7,16.6
		z M37.1,17l-0.7-0.8c0.1-0.1,0.1-0.2,0.1-0.2c0-0.1,0-0.1,0-0.2l0.9,1L37.1,17z M36.4,15.7c0,0.1,0,0.2,0,0.3
		c0,0.1-0.1,0.2-0.1,0.2c-0.1,0.1-0.1,0.1-0.2,0.2c-0.2,0.1-0.3,0.1-0.5,0.1h-0.1h-0.1c0-0.3,0-0.8,0-0.9l0.9-0.7
		C36.3,15,36.3,15.5,36.4,15.7z M34.6,14.4l0.3-0.2l0.9,1l-0.3,0.2L34.6,14.4z M36,23.6l0.3-0.7c0.3,0.1,0.6,0.1,1,0.2L37,23.8
		C36.6,23.7,36.3,23.7,36,23.6z M34.6,22.7v0.7c-0.3,0-0.7-0.1-1-0.1c-0.2,0-0.3,0-0.5,0v-0.7C33.5,22.7,34,22.7,34.6,22.7z
		 M35.2,21.8c0.2,0,0.3,0,0.5,0.1l-0.2,0.7c-0.6-0.1-1.1-0.1-1.5-0.1v-0.8c0.2,0,0.3,0,0.5,0L35.2,21.8z M35.5,22.7l0.2-0.8
		c0.4,0.1,0.7,0.1,1.1,0.2v0.8C36.4,22.7,36,22.7,35.5,22.7z M34.7,22.7c0.5,0,1,0.1,1.5,0.2l-0.3,0.7c-0.4-0.1-0.9-0.1-1.3-0.2
		V22.7z M37,22.9v-0.8c0.3,0.1,0.7,0.2,1,0.2L37.8,23C37.5,23,37.2,22.9,37,22.9z M36.1,21c0.3,0.1,0.6,0.1,0.9,0.1
		c-0.1,0.2-0.2,0.6-0.3,0.7c-0.1,0-0.3-0.1-0.4-0.1L36.1,21z M34.3,21.7v-0.7c0.2,0,0.7,0,1,0.1l-0.1,0.7h-0.1
		c-0.2,0-0.5-0.1-0.7-0.1H34.3z M33.8,21.8v0.8c-0.5,0-1,0.1-1.4,0.1c-0.1-0.3-0.1-0.7-0.1-0.9C32.7,21.8,33.2,21.8,33.8,21.8z
		 M32.3,22.7c-0.8,0.1-1.4,0.2-1.5,0.2l-0.3-0.9c0.2-0.1,0.8-0.2,1.7-0.2C32.2,22,32.2,22.5,32.3,22.7z M31.4,21.1
		c0,0.1,0,0.3,0,0.7c-0.5,0.1-0.9,0.1-1,0.2l-0.2-0.7C30.3,21.3,30.7,21.2,31.4,21.1z M30.7,23c0.2-0.1,1-0.2,2.2-0.3v0.7
		c-0.9,0.1-1.5,0.1-2.1,0.2L30.7,23z M37.9,25.1c-1.3-0.4-2.6-0.6-4.1-0.6c-1.8,0-3.1,0.3-3.4,0.4L30,24c0.3-0.1,1.6-0.5,3.6-0.5
		c1.5,0,3.1,0.3,4.8,0.7L37.9,25.1z M37,23.8l0.3-0.7c0.1,0,0.2,0.1,0.3,0.1l-0.3,0.8C37.3,23.9,37.2,23.8,37,23.8z M38.1,22.2
		c-0.2-0.1-0.5-0.1-0.7-0.2l0.5-0.7c0.1,0,0.3,0.1,0.6,0.1L38.1,22.2z"/>
</g>
</svg>
