<?xml version="1.0" encoding="utf-8"?>
<!-- Generator: Adobe Illustrator 25.4.1, SVG Export Plug-In . SVG Version: 6.00 Build 0)  -->
<svg version="1.1" id="Layer_1" xmlns="http://www.w3.org/2000/svg" xmlns:xlink="http://www.w3.org/1999/xlink" x="0px" y="0px"
	 viewBox="0 0 229 59" style="enable-background:new 0 0 229 59;" xml:space="preserve">
<path class="text" style="fill:#1A1A1A;" d="M68.1,16.2H68c-4.5-1.4-8.4-2.6-8.4-6.2c0-3.2,3-5.1,7.7-5.1c4.7,0,7.9,1.8,8.3,4.8
	c0,0.5,0.5,0.9,1,0.9h0.8c0.2,0,0.4-0.1,0.5-0.3c0.2-0.2,0.3-0.5,0.3-0.8c-0.3-4.2-4.8-7.1-10.9-7.1c-6.3,0-10.4,3.1-10.4,7.7
	c0,5.4,5.7,7.2,10.4,8.6c5.3,1.6,8.7,2.9,8.7,6.3c0,3.2-3.1,5.1-8,5.1c-4.9,0-8.3-1.8-8.7-4.7c0-0.5-0.4-0.9-1-0.9h-0.7
	c-0.2,0-0.5,0.1-0.7,0.3c-0.2,0.2-0.3,0.5-0.3,0.8c0.3,4.2,5,7.1,11.3,7.1c6.5,0,10.7-3.1,10.7-7.7C78.7,19.5,72.6,17.6,68.1,16.2z"
	/>
<path class="text" style="fill:#1A1A1A;" d="M108.3,31.2L95.7,3.8c-0.2-0.4-0.7-0.7-1.2-0.7h-1c-0.5,0-0.9,0.3-1.2,0.7L79.6,31.2
	c-0.1,0.2-0.1,0.4,0,0.6c0.1,0.2,0.3,0.3,0.6,0.3h1.1c0.5,0,0.9-0.3,1.1-0.7L85,26c0.1-0.2,0.3-0.3,0.5-0.3h17
	c0.2,0,0.4,0.1,0.5,0.3l2.5,5.4c0.2,0.4,0.7,0.7,1.1,0.7h1c0.2,0,0.5-0.1,0.6-0.3C108.4,31.6,108.4,31.3,108.3,31.2z M101.6,22.9
	C101.6,23,101.6,23,101.6,22.9c0,0.1,0,0.1-0.1,0.1H86.4h-0.1c0,0,0,0,0-0.1l7.6-16.8L101.6,22.9z"/>
<path class="text" style="fill:#1A1A1A;" d="M130.5,29.4h-15.4c-0.1,0-0.3-0.1-0.3-0.3V3.9c0-0.5-0.4-0.9-0.9-0.9h-0.8c-0.5,0-0.9,0.4-0.9,0.9
	v27.3c0,0.5,0.4,0.9,0.9,0.9h17.5c0.5,0,0.9-0.4,0.9-0.9v-0.8C131.4,29.8,131,29.4,130.5,29.4z"/>
<path class="text" style="fill:#1A1A1A;" d="M149.6,3h-21.6c-0.5,0-0.9,0.4-0.9,0.9v0.8c0,0.5,0.4,0.9,0.9,0.9h9.2c0.1,0,0.3,0.1,0.3,0.3v25.3
	c0,0.5,0.4,0.9,0.9,0.9h0.8c0.5,0,0.9-0.4,0.9-0.9V5.8c0-0.1,0.1-0.3,0.3-0.3h9.2c0.5,0,0.9-0.4,0.9-0.9V3.9
	C150.6,3.4,150.1,3,149.6,3z"/>
<path class="text" style="fill:#1A1A1A;" d="M173,29.4h-15.4c-0.1,0-0.3-0.1-0.3-0.3V3.9c0-0.5-0.4-0.9-0.9-0.9h-0.8c-0.5,0-0.9,0.4-0.9,0.9v27.3
	c0,0.5,0.4,0.9,0.9,0.9H173c0.5,0,0.9-0.4,0.9-0.9v-0.8C173.9,29.8,173.5,29.4,173,29.4z"/>
<path class="text" style="fill:#1A1A1A;" d="M181.2,5.6h16.3c0.5,0,0.9-0.4,0.9-0.9V3.9c0-0.5-0.4-0.9-0.9-0.9h-18.4c-0.5,0-0.9,0.4-0.9,0.9v27.3
	c0,0.5,0.4,0.9,0.9,0.9h18.4c0.5,0,0.9-0.4,0.9-0.9v-0.8c0-0.5-0.4-0.9-0.9-0.9h-16.3c-0.1,0-0.3-0.1-0.3-0.3v-9.9
	c0-0.1,0.1-0.3,0.3-0.3H195c0.5,0,0.9-0.4,0.9-0.9v-0.7c0-0.5-0.4-0.9-0.9-0.9h-13.8c-0.1,0-0.3-0.1-0.3-0.3V5.8
	C181,5.7,181.1,5.6,181.2,5.6z"/>
<path class="text" style="fill:#1A1A1A;" d="M228.6,3.3c-0.1-0.2-0.3-0.3-0.5-0.3h-1.3c-0.5,0-1,0.3-1.2,0.6l-10.8,15c-0.1,0.1-0.1,0.1-0.2,0
	L203.8,3.7c-0.3-0.4-0.7-0.7-1.2-0.7h-1.3c-0.2,0-0.4,0.1-0.5,0.3c-0.1,0.2-0.1,0.4,0,0.6l12.4,17.2c0.1,0.2,0.2,0.5,0.2,0.8v9.3
	c0,0.5,0.4,0.9,0.9,0.9h0.8c0.5,0,0.9-0.4,0.9-0.9v-9.3c0-0.2,0.1-0.6,0.2-0.8l12.4-17.2C228.7,3.7,228.7,3.5,228.6,3.3z"/>
<path class="text" style="fill:#126B52;" d="M62.5,40.8c0.1-0.3,0.4-0.4,0.7-0.4h3.1c0.3,0,0.6,0.2,0.7,0.4l6,15c0.1,0.2-0.1,0.4-0.3,0.4h-3.5
	c-0.3,0-0.5-0.2-0.6-0.4L68,54.3c-0.1-0.2-0.3-0.4-0.5-0.4h-5.4c-0.2,0-0.5,0.2-0.5,0.4l-0.7,1.5c-0.1,0.3-0.4,0.4-0.6,0.4h-3.5
	c-0.2,0-0.4-0.2-0.3-0.4L62.5,40.8z M66.1,50.2c0.2,0,0.3-0.2,0.3-0.4l-1.5-3.9c0-0.1-0.2-0.1-0.3,0l-1.4,3.9
	c-0.1,0.2,0.1,0.4,0.3,0.4H66.1z"/>
<path class="text" style="fill:#126B52;" d="M85.4,50.8c0.2-0.3,0.4-0.3,0.7-0.2l2.9,1.2c0.2,0.1,0.3,0.4,0.2,0.6c-1.4,2.4-4.2,4.2-7.4,4.2
	c-4.6,0-8.5-3.7-8.5-8.3s3.9-8.3,8.5-8.3c3.1,0,5.8,1.6,7.3,4.1c0.1,0.2,0,0.5-0.2,0.6L86,46c-0.3,0.1-0.5,0.1-0.7-0.2
	c-0.8-1.1-2-1.8-3.6-1.8c-2.3,0-4.3,1.9-4.3,4.3c0,2.4,1.9,4.3,4.3,4.3C83.3,52.7,84.6,51.9,85.4,50.8z"/>
<path class="text" style="fill:#126B52;" d="M95.9,40.8c0.1-0.3,0.4-0.4,0.7-0.4h3.1c0.3,0,0.6,0.2,0.7,0.4l6,15c0.1,0.2-0.1,0.4-0.3,0.4h-3.5
	c-0.3,0-0.5-0.2-0.6-0.4l-0.6-1.5c-0.1-0.2-0.3-0.4-0.5-0.4h-5.4c-0.2,0-0.5,0.2-0.5,0.4l-0.6,1.5c-0.1,0.3-0.4,0.4-0.6,0.4h-3.5
	c-0.2,0-0.4-0.2-0.3-0.4L95.9,40.8z M99.4,50.2c0.2,0,0.3-0.2,0.3-0.4l-1.4-3.9c0-0.1-0.2-0.1-0.3,0l-1.4,3.9
	c-0.1,0.2,0.1,0.4,0.3,0.4H99.4z"/>
<path class="text" style="fill:#126B52;" d="M109,56.2c-0.3,0-0.5-0.2-0.5-0.5V40.8c0-0.3,0.2-0.5,0.5-0.5h6.9c5,0,7.6,3.7,7.6,7.9
	c0,4.4-2.6,7.9-7.6,7.9H109z M115.5,44.3H113c-0.2,0-0.4,0.2-0.4,0.4v7.2c0,0.2,0.2,0.4,0.4,0.4h2.6c2.5,0,3.7-1.6,3.7-4
	C119.3,45.9,118,44.3,115.5,44.3z"/>
<path class="text" style="fill:#126B52;" d="M126.3,56.2c-0.3,0-0.5-0.2-0.5-0.5V40.8c0-0.3,0.2-0.5,0.5-0.5h11.2c0.3,0,0.5,0.2,0.5,0.5v3
	c0,0.3-0.2,0.5-0.5,0.5h-7.3c-0.2,0-0.4,0.2-0.4,0.4v1.4c0,0.2,0.2,0.4,0.4,0.4h5.8c0.3,0,0.5,0.2,0.5,0.5v2.8
	c0,0.3-0.2,0.5-0.5,0.5h-5.8c-0.2,0-0.4,0.2-0.4,0.4v1.2c0,0.2,0.2,0.4,0.4,0.4h7.3c0.3,0,0.5,0.2,0.5,0.5v3c0,0.3-0.2,0.5-0.5,0.5
	h-11.2V56.2z"/>
<path class="text" style="fill:#126B52;" d="M144.9,55.8c0,0.3-0.2,0.5-0.5,0.5h-3.1c-0.3,0-0.5-0.2-0.5-0.5v-15c0-0.3,0.2-0.5,0.5-0.5h3.2
	c0.3,0,0.6,0.2,0.7,0.4l4.2,8.4c0.1,0.2,0.3,0.2,0.4,0l4.2-8.4c0.1-0.2,0.4-0.4,0.7-0.4h3.2c0.3,0,0.5,0.2,0.5,0.5v15
	c0,0.3-0.2,0.5-0.5,0.5h-3.1c-0.3,0-0.5-0.2-0.5-0.5v-7.2c0-0.1-0.1-0.1-0.2,0l-2.9,5.8c-0.1,0.2-0.4,0.4-0.7,0.4h-1.7
	c-0.3,0-0.6-0.2-0.7-0.4l-2.9-5.8c0-0.1-0.2-0.1-0.2,0v7.2H144.9z"/>
<path class="text" style="fill:#126B52;" d="M164.5,40.3c0.3,0,0.6,0.2,0.7,0.4l3.1,5c0.1,0.2,0.3,0.2,0.4,0l3.1-5c0.2-0.2,0.4-0.4,0.7-0.4h3.9
	c0.2,0,0.3,0.2,0.2,0.4l-5.8,9.3c-0.1,0.2-0.2,0.5-0.2,0.7v5.1c0,0.3-0.2,0.5-0.5,0.5H167c-0.3,0-0.5-0.2-0.5-0.5v-4.9
	c0-0.2-0.1-0.5-0.2-0.7l-5.8-9.3c-0.1-0.2,0-0.4,0.2-0.4h3.9V40.3z"/>
<path style="fill:#254790;" d="M1.2,40.7c0,1.1,0.3,3.9,2.3,6.8c2.3,3.3,7.4,7.6,18.5,10.3V29.1H1.2V40.7z"/>
<path style="fill:#254790;" d="M44,1.5H23.1v26.6H44V1.5z"/>
<path style="fill:#E31205;" d="M22,1.5H1.2v26.6H22V1.5z"/>
<path style="fill:#E31205;" d="M44,40.8V29.1H23.1v28.7c6.4-1.5,14.5-4.6,18.5-10.3C43.7,44.6,44.1,41.9,44,40.8z"/>
<path class="text" style="fill:#1A1A1A;" d="M45,0.5H23.1h-1h-22v40.2c0,0-1.2,12.7,21.9,18.1l0.5,0.1l0.5-0.1c23.1-5.4,21.9-18.1,21.9-18.1V0.5
	H45z M22,57.9c-11.1-2.6-16.1-7-18.5-10.3c-2-2.9-2.5-5.6-2.3-6.7V29.1H22V57.9z M22,28.1H1.2V1.5H22V28.1z M23.1,1.5H44v26.6H23.1
	V1.5z M41.6,47.6c-4.1,5.8-12.1,8.8-18.5,10.3V29.1H44v11.6C44.1,41.9,43.7,44.6,41.6,47.6z"/>
<path style="fill:#CCCCCC;" d="M31.4,21.6v-1.2c-2.1,0.1-3.6,0.4-4,0.5l0.3,1.1C28.8,21.8,30,21.6,31.4,21.6z"/>
<path style="fill:#CCCCCC;" d="M34.5,21.6c0.7,0.1,1.5,0.1,2.2,0.3l0.5-1.3c-1-0.1-1.9-0.2-2.8-0.3V21.6z"/>
<path style="fill:#CCCCCC;" d="M26.1,22.6l0.8,1.5c0.4-0.1,2.8-0.7,6-0.7c2.6,0,5,0.4,7.3,1.1l0.7-1.5c-2.9-0.9-5.6-1.3-8.5-1.3
	C29,21.7,26.6,22.5,26.1,22.6z"/>
<path style="fill:#CCCCCC;" d="M39.2,20.9c-0.6-0.1-1.1-0.2-1.7-0.3l-0.5,1.3c0.5,0.1,1,0.2,1.6,0.3L39.2,20.9z"/>
<path style="fill:#CCCCCC;" d="M41.6,9.4l-1.8-2.1v2.2L41.6,9.4z"/>
<path style="fill:#CCCCCC;" d="M30,18.7c-1.6,0.1-2.8,0.4-3.1,0.4l0.5,1.5c0.3-0.1,1.3-0.3,2.8-0.4C30.1,19.9,30,19,30,18.7z"/>
<path style="fill:#CCCCCC;" d="M41.1,18c-0.3-0.1-0.8-0.2-1-0.2l-0.8,1.3c0.4,0.1,0.9,0.2,1.3,0.3L41.1,18z"/>
<path style="fill:#CCCCCC;" d="M33,20.1v-1.4c-1,0-1.9,0-2.8,0.1c0,0.2,0.1,0.9,0.2,1.5C31.1,20.2,31.9,20.1,33,20.1z"/>
<path style="fill:#CCCCCC;" d="M28.6,17.4c-1.1,0.2-1.8,0.3-2,0.4l0.4,1.2c0.2,0,0.8-0.2,1.7-0.3C28.6,17.9,28.6,17.6,28.6,17.4z"/>
<path style="fill:#CCCCCC;" d="M31.6,21.5c0.3,0,0.5,0,0.8,0c0.6,0,1.2,0,1.8,0.1v-1.3c-1,0-1.8,0-2.7,0V21.5z"/>
<path style="fill:#CCCCCC;" d="M38.7,22.3c0.2,0.1,0.5,0.1,0.7,0.2l0.5-1.4C39.7,21,39.5,21,39.3,21L38.7,22.3z"/>
<path style="fill:#CCCCCC;" d="M37.5,7.8c0-0.4-0.2-1.2-0.3-1.5l-1.5,1.3c0,0.2,0,1.2,0,1.7h0.1h0.1c0.3,0.1,0.6,0,0.9-0.2
	C36.9,9.1,37,9,37.1,8.9c0.1-0.1,0.2-0.3,0.2-0.4C37.5,8.1,37.5,8,37.5,7.8z"/>
<path style="fill:#CCCCCC;" d="M40.5,19.7c-0.6-0.2-1.2-0.3-1.8-0.4v1.4c0.4,0.1,0.9,0.2,1.3,0.3L40.5,19.7z"/>
<path style="fill:#CCCCCC;" d="M39.3,9.8L37.7,8c0,0.1,0,0.2,0,0.3c0,0.1-0.1,0.3-0.2,0.4l1.3,1.4L39.3,9.8z"/>
<path style="fill:#CCCCCC;" d="M34,9.4c-0.2,0.2-0.5,0.4-0.7,0.6c-0.8,0.6-1.6,1-2.6,1.4c-0.3,0.2-0.7,0.3-1,0.5
	c-0.2,0.1-0.7,0.4-1,0.7c-0.4,0.4-0.4,1-0.2,1.6c0.2,0.5,0.5,0.9,0.8,1.3c0.4,0.5,0.7,0.9,1.2,1.3h1.2v0.2h-1l0.1,1.4
	c0.4,0,0.9-0.1,1.3-0.1V17h0.2v1.4c0.4,0,0.8,0,1.2,0v-1.5h0.1c0,0,0.5,0,1,0c-0.9-1.4-2.5-2.4-4-2.8l-0.3-0.1l0.3-0.1
	c2-0.7,3.9-2.5,4.8-4.8c0-0.4,0-1.2,0-1.5C35.1,8.4,34.6,8.9,34,9.4z"/>
<path style="fill:#CCCCCC;" d="M36.4,6.7l-1.5-1.6l-0.5,0.4l1.5,1.7L36.4,6.7z"/>
<path style="fill:#CCCCCC;" d="M38.1,18.8c0.1-0.2,0.4-1,0.5-1.3c-0.5-0.1-1-0.2-1.5-0.2l0.3,1.4C37.5,18.8,37.8,18.8,38.1,18.8z"/>
<path style="fill:#CCCCCC;" d="M33.9,18.4h0.2c0.4,0,0.9,0,1.3,0.1h0.1l0.1-1.3c-0.6,0-1.4-0.1-1.7-0.1V18.4z"/>
<path style="fill:#CCCCCC;" d="M38.5,20.6v-1.4c-0.7-0.1-1.4-0.2-2-0.3L36,20.3C36.8,20.3,37.7,20.4,38.5,20.6z"/>
<path style="fill:#CCCCCC;" d="M34,18.6c-0.3,0-0.6,0-0.9,0v1.4c0.8,0,1.8,0,2.8,0.1l0.4-1.4c-0.3,0-0.6-0.1-0.9-0.1H34z"/>
<path style="fill:#CCCCCC;" d="M27.1,42.1l-0.2,4l8.1,1.1l-0.1-4.1L27.1,42.1z"/>
<path style="fill:#CCCCCC;" d="M35.1,47.1l3.2-0.8l-0.2-3.8l-3,0.6V47.1z"/>
<path style="fill:#CCCCCC;" d="M33.3,40.7v-1.3h-4.2l-1.8,2.4l7.5,0.9C33.2,41.7,33.3,40.7,33.3,40.7z"/>
<path style="fill:#CCCCCC;" d="M35.9,36.6L30,36l-2,1.6l7.6,0.4L35.9,36.6z"/>
<path style="fill:#CCCCCC;" d="M35.1,39.2l0.3-1L28,37.8l0.5,0.6l0.5,0.8H35.1z"/>
<path style="fill:#CCCCCC;" d="M35.7,39.2l-0.5,0.2H35h-1.5v1.3c0,0-0.1,0.9,1.5,2.1l2.9-0.5c-2-0.7-2.1-1.8-2.1-1.9V39.2z"/>
<path style="fill:#CCCCCC;" d="M40.8,36.9l-4.7-0.3L35.7,38L40.8,36.9z"/>
<path style="fill:#CCCCCC;" d="M35.6,38.2l-0.3,0.9l5.1-1.9L35.6,38.2z"/>
<path style="fill:#CCCCCC;" d="M5.2,36.6l1.3-1.2l0.6,0.7l-1.3,1.3l0.4,0.4l1.3-1.2L9,38.2v1H10l1.7,1.8l-3.1,3.4
	c-0.5-0.3-1-0.4-1.5-0.4c-0.7,0-1.3,0.3-1.6,0.8s-0.4,1-0.1,1.7c0.2,0.6,0.7,1.2,1.3,1.6c0.6,0.4,1.2,0.6,1.8,0.6
	c0.7,0,1.3-0.3,1.6-0.8c0.6-0.9,0.2-2.2-0.9-3.2l3-3.3l3.9,4.2c-0.9,0.8-1.2,2-0.7,2.9c0.3,0.5,0.9,0.8,1.7,0.8
	c0.6,0,1.1-0.2,1.6-0.5c1.2-0.8,1.7-2.2,1.1-3.2c-0.3-0.5-0.9-0.8-1.6-0.8c-0.5,0-1.1,0.2-1.6,0.4l-3.9-4.2l1.1-1.2l1.1,0.2v-1.4
	l1.8-1.9l0.8,0.2l0.8,0.7l0.3-0.1v-0.4l-0.8-0.7l-0.1-1l0.5-0.6l1.2,1.2H20v-0.4l-1.2-1.2l1.1-1.1c0-0.3-0.2-0.4-0.4-0.4
	c-0.1,0-0.1,0-0.1,0l-4.8,5.3h-1.4l0.2,1.3l-1.1,1l-1.6-1.7l0.1-1.5l-1,0.5l-4.1-4.4c0,0-0.1,0-0.2,0c-0.1,0-0.2,0-0.2,0.1
	c0,0.1,0,0.2,0,0.3L6,34.6l-1.4,1.4L5.2,36.6z M16.6,45.6c0.4-0.3,0.8-0.5,1.3-0.5c0.5,0,0.9,0.2,1.2,0.6c0.3,0.3,0.4,0.8,0.2,1.3
	c-0.1,0.5-0.4,0.9-0.8,1.2c-0.4,0.3-0.8,0.5-1.3,0.5c-0.5,0-0.9-0.2-1.2-0.6c-0.3-0.3-0.4-0.8-0.2-1.3
	C15.9,46.3,16.2,45.9,16.6,45.6z M9.3,47.6c-0.2,0.3-0.6,0.5-1.1,0.5c-0.5,0-1-0.2-1.4-0.5s-0.7-0.8-0.9-1.2
	c-0.1-0.5-0.1-0.9,0.2-1.2c0.2-0.3,0.6-0.5,1.1-0.5s1,0.2,1.4,0.5C9.6,45.7,10,46.9,9.3,47.6z"/>
<path d="M15.8,46.9c-0.1,0.5,0,0.9,0.2,1.3c0.3,0.4,0.7,0.6,1.2,0.6s0.9-0.2,1.3-0.5c0.4-0.3,0.7-0.7,0.8-1.2c0.1-0.5,0-0.9-0.2-1.3
	c-0.3-0.4-0.7-0.6-1.2-0.6c-0.5,0-0.9,0.2-1.3,0.5C16.2,45.9,15.9,46.3,15.8,46.9z M16,46.9c0.1-0.4,0.4-0.8,0.7-1.1
	c0.4-0.3,0.8-0.4,1.2-0.4c0.4,0,0.8,0.2,1.1,0.5c0.2,0.3,0.3,0.7,0.2,1.1c-0.1,0.4-0.4,0.8-0.7,1.1c-0.4,0.3-0.8,0.4-1.2,0.4
	c-0.4,0-0.8-0.2-1.1-0.5C15.9,47.7,15.9,47.4,16,46.9z"/>
<path d="M8.7,45c-0.4-0.3-0.9-0.5-1.4-0.5S6.4,44.7,6.2,45C6,45.3,5.9,45.8,6,46.2c0.1,0.5,0.4,0.9,0.9,1.2C7.3,47.8,7.8,48,8.3,48
	c0.5,0,0.9-0.2,1.1-0.5C10,46.9,9.6,45.7,8.7,45z M9.2,47.5c-0.2,0.3-0.6,0.4-1,0.4c-0.4,0-0.9-0.2-1.3-0.5s-0.7-0.7-0.8-1.1
	C6,45.8,6,45.4,6.3,45.1c0.2-0.3,0.6-0.4,1-0.4s0.9,0.2,1.3,0.5C9.5,45.8,9.8,46.9,9.2,47.5z"/>
<path style="fill:#CCCCCC;" d="M8.5,21.6c0,0.2,0,0.3,0,0.5c0,0.1,0.1,0.3,0.2,0.4c0.1,0.2,0.1,0.4,0.1,0.6c0,0.1,0,0.2,0,0.3
	c0,0.1,0.1,0.2,0.2,0.2s0.2-0.1,0.2-0.2c0-0.1,0-0.2,0-0.3c0-0.6,0.2-1.3,0.5-1.8c0,0.2-0.1,0.4-0.2,0.7c-0.1,0.4-0.1,0.9-0.1,1.4
	c0,0.1,0,0.2,0,0.2c0.1,0.1,0.2,0.1,0.3,0c0.1-0.1,0.1-0.2,0-0.3c0.1,0,0.2,0,0.2,0.1c0,0.1,0,0.2,0,0.3c0,0.1,0,0.2,0,0.3
	c0.1,0.1,0.2,0.1,0.4,0.2c0.1,0,0.1,0,0.2,0c0.1,0,0.1-0.1,0.1-0.2c0-0.5,0-1,0-1.4c0-0.5,0.1-1,0.4-1.4c0,0.6,0,1.2-0.1,1.8
	c0,0.3,0,0.6,0.2,0.9c0.1,0.1,0.2,0.2,0.3,0.1v-0.1c0.1-0.6,0.1-1.2,0.1-1.9c0-0.1,0-0.2,0-0.3s0.1-0.2,0.2-0.2c0,0.2,0,0.4-0.1,0.6
	c-0.1,0.5-0.1,1.1-0.1,1.6c0,0.1,0,0.2,0.1,0.3c0,0.1,0.2,0.1,0.2,0.1c0.1,0,0.1-0.1,0.1-0.2c0-0.8,0-1.5,0-2.3c0-0.1,0-0.2,0.1-0.3
	c0.1,0.2,0.1,0.4,0.1,0.6c-0.1,0.5-0.1,1.1,0,1.6c0,0.1,0,0.2,0.1,0.3c0.1,0.1,0.2,0.1,0.2,0v-0.1c0-0.7,0-1.3,0-2
	c0-0.1,0-0.1,0-0.2l0.1-0.1c0,0,0,0,0.1,0c0.1,0,0.1-0.1,0.1-0.2c0-0.1,0.1-0.3,0.2-0.4c0.1,0.2,0.1,0.5,0.2,0.7c0,0,0,0.1,0.1,0.1
	c0,0,0,0,0.1,0c0.1-0.1,0.1-0.3,0.1-0.4l0.1-0.1l0.1,0.1c0.1,0.3,0.1,0.7,0,1c-0.1,0.2-0.2,0.3-0.2,0.5c0,0.1,0,0.2,0,0.3
	c0,0.1,0,0.2,0,0.4c0,0.1,0,0.3,0.1,0.3c0.1,0.1,0.2,0,0.3-0.1c0.1-0.1,0.1-0.2,0.1-0.3c0-0.1,0-0.2,0-0.3c0,0,0,0,0.1-0.1
	c0.1,0,0.2,0.1,0.2,0.2s0,0.2,0.1,0.3c0.1,0.1,0.3,0,0.3-0.1c0.1-0.1,0-0.3,0-0.4c-0.1-0.4-0.2-0.9,0-1.3l0.1-0.1c0,0,0,0,0.1,0
	c0.1,0.1,0.1,0.2,0.1,0.4c0,0.1,0.2,0.3,0.3,0.2c0.1,0,0.1-0.1,0.1-0.2c0-0.1,0-0.3,0-0.4v-0.1c0,0-0.1,0-0.1-0.1
	c-0.1,0-0.1-0.1-0.2-0.1h-0.1C15,21.2,15,21.1,15,21c0-0.3,0-0.5,0-0.8c0-0.1,0-0.2-0.1-0.2c-0.1,0-0.2,0.1-0.3,0.1c0,0,0,0,0-0.1
	c0-0.3,0.2-0.6,0-0.9c-0.3,0.3-0.3,0.7-0.4,1.1c0,0.1-0.1,0.2-0.2,0.2c-0.1,0-0.1-0.2-0.1-0.2c0-0.2,0.1-0.5,0.1-0.7
	c0-0.1,0-0.1,0-0.2c0-0.1-0.1-0.1-0.1-0.1c-0.1,0-0.1,0.1-0.2,0V19c0-0.2,0-0.5,0-0.7c0-0.1,0-0.2,0.1-0.2l0.1-0.1
	c0.1-0.1,0.1-0.4-0.1-0.5v-0.1c0-0.2-0.1-0.4-0.3-0.4c-0.1,0-0.2,0-0.2,0.1c0,0.1,0,0.2,0,0.3c0,0.1-0.1,0.1-0.2,0.1v-0.1
	c0-0.1,0-0.2,0-0.3c0-0.1-0.1-0.2-0.2-0.1c-0.1,0-0.1,0.2-0.1,0.3c0,0.1,0.1,0.2,0.1,0.3c0,0.1,0,0.1,0,0.2c0,0.2,0,0.4,0,0.6
	c0,0.1-0.1,0.3-0.2,0.2c-0.1,0-0.1-0.1-0.1-0.2c0-0.1-0.1-0.2-0.1-0.2c-0.1,0-0.1,0.1-0.1,0.2c0,0.1,0,0.2,0,0.3
	c0,0.1,0,0.2-0.1,0.2C12.1,19,12,18.8,12,18.7c-0.1-0.3,0.1-0.6-0.1-0.8c-0.1,0.2-0.1,0.4-0.3,0.6l-0.1,0.1c0,0-0.1,0-0.1-0.1
	c0-0.1-0.1-0.2-0.1-0.3c-0.2,0.1-0.3,0.3-0.3,0.5c0,0.2,0.1,0.4,0,0.6v0.1c-0.1,0.1-0.2,0.1-0.3,0c-0.1-0.1-0.1-0.2-0.1-0.3
	c0-0.5,0.2-1.1,0-1.6c-0.1,0.1-0.2,0.2-0.3,0.3c-0.1,0.1-0.1,0.3-0.1,0.5c0,0.4-0.1,0.9-0.1,1.3C10,19.6,9.9,19.3,9.9,19
	c0-0.4,0-0.9,0.1-1.3c0-0.1,0.1-0.3,0-0.4l-0.1-0.1c-0.1-0.1,0-0.2,0-0.3c0-0.1-0.1-0.3-0.2-0.2c0,0-0.1,0-0.1,0.1
	c-0.2,0.2-0.3,0.6-0.4,0.9c-0.1,0.4-0.3,0.8-0.4,1.2c-0.1,0.1-0.2,0.3-0.3,0.3l-0.1,0.8C8.6,20.4,8.5,21,8.5,21.6z"/>
<path style="fill:#CCCCCC;" d="M15.5,21.4c0,0-0.1-0.1-0.1,0C15.5,21.3,15.5,21.4,15.5,21.4z"/>
<path style="fill:#CCCCCC;" d="M14.7,8C14.6,8,14.6,8,14.7,8C14.6,8.1,14.6,8.1,14.7,8c-0.1,0.1-0.1,0.1-0.1,0.1
	C14.7,8.1,14.9,8,15,8c0,0-0.1,0-0.1-0.1C14.8,8,14.7,8,14.7,8z"/>
<path style="fill:#CCCCCC;" d="M12.2,15.4c0-0.1-0.1-0.2-0.2-0.2h-0.1c0.1,0,0.1,0,0.2,0c-0.1,0-0.1,0-0.2,0l-0.1,0.1l0.1-0.1
	c-0.1,0-0.2,0-0.4,0c-0.1,0-0.2,0-0.4,0.1c-0.1,0-0.2,0-0.3,0.1c-0.1,0-0.1,0-0.2,0.1c-0.1,0-0.1,0.1-0.1,0.2l0.1,0.1
	c0.1,0,0.1,0,0.2,0c0.4,0,0.7-0.1,1.1-0.1C12.1,15.5,12.2,15.5,12.2,15.4z"/>
<path d="M17.1,11.3c-0.1-0.5-0.5-0.6-0.7-0.7c0.3-1.1,0.2-1.8-0.2-2.2C16,8.1,15.7,8,15.4,8c0.1-0.4,0.1-1-0.2-1.4
	c-0.3-0.4-0.9-0.5-1.8-0.3V6.2c0-0.7-0.8-1.2-1.7-1.2C10.7,5,10,5.5,9.9,6.1c-0.4-0.3-1-0.3-1.6,0C7.5,6.5,7.1,7.3,7.5,7.9
	c-0.1,0-0.1,0-0.2,0c-0.9,0-1.6,0.6-1.6,1.4c0,0.5,0.3,0.9,0.7,1.2c-0.1,0.4-0.7,1.9,0.3,2.5c-0.1,0.4-0.3,2.4,2.2,3.4l-1.3,7.2
	c0,0,1.7,1.3,4.1,1.3c1.2,0,2.7-0.3,4.1-1.4c0.4-2.4-1.5-6.5-1.7-7C17,13.5,17.3,12,17.1,11.3z M14.9,15.7
	C14.9,15.7,14.8,15.7,14.9,15.7c0,0,0-0.1,0.1-0.1L14.9,15.7z M14.8,7.2c0.1,0,0.1-0.1,0.1-0.2s0.1-0.1,0.2-0.1c0,0,0,0,0.1,0.1
	c0.1,0.2,0,0.4-0.1,0.5c-0.1,0.1-0.3,0.2-0.5,0.1V7.5c0-0.1,0-0.2,0-0.2V7.2C14.6,7.2,14.7,7.2,14.8,7.2z M15,8.1
	c-0.1,0-0.3,0-0.4,0.1V8.1c0,0,0,0,0.1,0c0.1,0,0.1,0,0.2,0C14.9,8,15,8,15,8.1z M13.8,6.7c0.1-0.1,0.3-0.1,0.5-0.1
	c0.1,0,0.1,0.1,0.1,0.1c0,0.1-0.1,0.1-0.2,0.1c-0.1,0-0.2,0-0.2,0s-0.1,0-0.2,0C13.8,6.8,13.7,6.8,13.8,6.7
	C13.7,6.7,13.8,6.7,13.8,6.7z M10.6,5.8C10.6,5.7,10.6,5.7,10.6,5.8c0.1-0.1,0.1-0.1,0.1,0c0.1,0,0.1,0,0.2,0L11,5.7
	c0.1-0.1,0.2-0.2,0.3-0.1c0,0,0.1,0,0.1,0.1c0,0.1,0,0.1-0.1,0.2L11.2,6c-0.1,0.1-0.1,0.2-0.2,0.3c-0.1,0-0.2,0-0.2,0.1l-0.1,0.1
	c0,0-0.1,0.1-0.2,0V6.4C10.5,6.1,10.5,5.9,10.6,5.8z M8.8,15.3c-0.1,0.1-0.2,0.1-0.3,0.1s-0.2,0-0.3-0.1c0-0.1-0.1-0.2-0.1-0.3
	c0-0.1,0.1-0.2,0.2-0.3c0.1-0.1,0.1-0.3,0-0.4c-0.1-0.1-0.4,0-0.6-0.1c-0.1-0.1-0.1-0.2-0.1-0.3c0-0.2,0-0.3,0.1-0.5
	c0-0.1,0.1-0.2,0-0.3c0,0-0.1,0-0.2,0c-0.1,0-0.1,0-0.2-0.1c0-0.1,0.1-0.1,0.2-0.2c0.1,0,0.2-0.1,0.1-0.2c-0.2,0-0.4,0-0.6-0.1
	c-0.1-0.1-0.1-0.2-0.1-0.3c0-0.2,0.1-0.4,0.3-0.5c0.1-0.1,0.2-0.1,0.2-0.2c0.1-0.1,0.1-0.2,0-0.3c-0.1,0-0.1,0-0.2-0.1
	c-0.1,0-0.1-0.1-0.1-0.2c0-0.1,0-0.2,0-0.3c0.1,0,0.2,0,0.2-0.1c0-0.1,0-0.2-0.1-0.2c-0.1,0-0.1-0.1-0.2-0.1C6.9,10,6.8,9.9,6.8,9.7
	c0-0.2,0.1-0.3,0.2-0.4S7.3,9.2,7.3,9c0-0.1-0.1-0.2-0.1-0.3c0-0.1,0-0.1,0.1-0.1c0.1-0.1,0.2-0.2,0.2-0.3c0-0.1,0-0.2-0.1-0.3
	C7.5,8,7.5,8,7.6,8c0.1,0,0.2-0.1,0.2-0.2c0-0.1-0.1-0.1-0.1-0.2c0-0.2-0.1-0.4-0.1-0.6c0-0.1,0-0.3,0.1-0.4c0.1,0,0.1,0,0.2-0.1
	c0,0,0.1-0.1,0.1-0.2c0-0.1,0.2-0.1,0.2-0.1c0.1,0,0.2,0,0.3,0s0.1-0.1,0.2-0.1s0.1,0,0.2,0c0.1,0,0.3,0,0.4,0.2
	c0.1,0.1,0,0.3,0,0.4c0,0.1-0.1,0.3-0.1,0.4c0.1,0,0.2-0.1,0.2-0.2c0-0.1,0-0.2,0.1-0.3l0.1-0.1l0.1-0.1c0,0.1,0.1,0.1,0.1,0.2
	c0.1,0.1,0.2,0.1,0.3,0.1h0.1c0.2,0,0,0.3,0.2,0.4c0.1,0,0.1,0,0.1-0.1c0,0,0-0.1,0-0.2s0-0.2,0-0.3c0-0.1,0.1-0.2,0.2-0.2
	c0.2-0.1,0.4,0.1,0.5,0c0.2-0.1,0-0.4,0.1-0.6c0-0.1,0.1-0.1,0.2-0.1c0.1,0,0.2,0.1,0.2,0.2v0.1C11.8,6,12,6,12,5.9
	c0.1,0,0.2-0.1,0.2,0c0.1,0.1,0,0.2,0.1,0.3h0.1c0.1,0,0.1,0.1,0.1,0.2s-0.1,0.2-0.2,0.3C12.2,6.8,12,6.9,12,7s0.1,0.2,0.2,0.2
	c0.1,0,0.2,0,0.3,0h0.1c0,0,0.1-0.1,0.1-0.2s0.1-0.2,0.2-0.3c0.1,0,0.3,0,0.3,0.1S13.1,7,13.1,7.1c0.1,0,0.2,0,0.2,0
	c0,0.1,0,0.2-0.1,0.4v0.1c0,0,0,0,0.1,0c0.1,0,0.2,0.1,0.2,0.2c0,0.1,0,0.2-0.1,0.2c-0.1,0-0.1,0-0.2,0C13.1,8,13,8.2,13,8.4
	c-0.1,0-0.2,0-0.3-0.1C12.6,8.1,12.5,8,12.4,8c-0.2,0-0.3,0.2-0.3,0.4c0,0.2,0,0.3,0,0.5c0.1,0,0.2,0,0.2-0.1s0.1-0.2,0.1-0.2
	c0.1-0.1,0.3-0.1,0.4,0c0.1,0.1,0.1,0.2,0.2,0.2c0.1,0,0.2,0,0.2-0.1c0.1-0.1,0.1-0.2,0.2-0.2c0.1-0.1,0.3,0,0.4-0.1
	c0.1,0,0.1-0.1,0.1-0.2c0.1,0,0.3-0.1,0.4-0.1h0.1c0,0.1-0.1,0.2-0.1,0.3c0.3,0,0.6,0,0.8,0.1c0.1,0,0.1,0.1,0.1,0.1v0.1
	c0,0.1,0.1,0,0.2,0l0.1,0.1V9c0,0.1,0.1,0.1,0.1,0.1c0,0.3,0,0.6-0.2,1.1c-0.1,0-0.1,0-0.2,0.1c-0.1,0-0.1,0.1-0.1,0.2
	c0,0.1,0.1,0.2,0.2,0.2c0.1,0,0.2,0.1,0.3,0.1c0.2,0.2,0.2,0.5,0.2,0.7c0,0.2-0.1,0.5-0.3,0.7c-0.1-0.4-0.2-0.8-0.4-1.1
	c-0.1-0.1-0.1-0.2-0.3-0.2c-0.1,0.2,0,0.5,0.1,0.7c-0.2,0-0.3-0.1-0.5-0.2c-0.2-0.1-0.4-0.1-0.5,0v0.1c0,0.1,0.1,0.1,0.1,0.2
	c0.3,0.2,0.6,0.3,1,0.5c0.2,0.1,0.4,0.2,0.4,0.4c0.1,0.2,0,0.4-0.2,0.6c0,0.1-0.1,0.1-0.1,0.1c-0.1,0-0.1,0-0.2,0
	c-0.1,0-0.1,0.2-0.1,0.3c0,0.1,0,0.2-0.1,0.3h-0.1c-0.1,0-0.3,0-0.3-0.1c-0.1-0.1,0.1-0.3,0.1-0.4c0.2-0.2,0.2-0.5,0.1-0.8
	c-0.2,0.1-0.5,0-0.5-0.3c-0.1,0.1-0.2,0.3-0.2,0.5c-0.1,0.2-0.1,0.4-0.3,0.4c-0.1,0-0.1,0-0.2,0c-0.2,0-0.4,0-0.5,0
	c-0.2,0-0.4,0-0.4,0.2c0,0.1,0.1,0.3,0,0.4c0,0-0.1,0-0.1,0.1c0.4,0.4,0.4,0.5,0.4,0.6c0,0.1,0.1,0.1,0.1,0.2c0-0.1,0-0.2,0.1-0.2
	c0.1-0.1,0.2-0.1,0.3-0.1c0.1,0,0.1,0,0.2,0v-0.1c0-0.1,0-0.2,0.1-0.2c0,0,0,0,0.1,0c0.1,0,0.1-0.1,0.1-0.1c0-0.1,0.1-0.2,0.2-0.2
	c0,0,0,0,0.1,0l0.1,0.1c0,0.1,0.1,0.2,0.2,0.2c0.1,0,0.1,0,0.2,0c0.1,0.1,0.1,0.2,0.1,0.3c0,0.3,0,0.7-0.1,1c0,0,0,0-0.1,0
	c-0.1-0.1-0.3-0.2-0.3-0.3v-0.1c0,0,0-0.1-0.1-0.1c-0.1,0-0.1,0-0.2,0c-0.1,0.1-0.2,0.1-0.2,0.2c-0.1,0.1-0.2,0.1-0.3,0
	c0-0.1-0.2-0.2-0.3-0.2c-0.1,0-0.3,0-0.4,0c-0.1,0-0.3,0-0.3-0.1c-0.1-0.1-0.3-0.2-0.4-0.2c-0.2,0-0.3,0.1-0.4,0.2
	c-0.1,0.1-0.2,0.1-0.2,0c-0.1,0-0.1-0.1-0.1-0.2c-0.2-0.1-0.4,0-0.5,0.2c0,0.1-0.1,0.2-0.1,0.2c0,0.1-0.1,0.1-0.2,0.1
	C9.8,15,9.2,15.1,8.8,15.3z M11.2,16.4c0.1,0,0.1-0.1,0.2-0.1c0.3-0.2,0.6-0.3,0.9-0.3c0.1,0,0.2,0.1,0.3,0c0.1,0,0.1-0.1,0.2-0.1
	c0.1,0,0.2,0,0.1,0.1c0,0.1-0.1,0.1-0.1,0.1c-0.1,0-0.2,0-0.3,0.1c-0.1,0.1-0.1,0.2-0.2,0.2c-0.1,0.1-0.2,0.1-0.3,0.1
	c-0.2,0-0.5,0.1-0.7,0.1c-0.1,0-0.1,0-0.2,0c-0.1,0-0.1-0.1-0.1-0.2C11,16.5,11.1,16.4,11.2,16.4z M10.9,15.7c-0.1,0-0.1,0-0.2,0
	c-0.1,0-0.1,0-0.1-0.1c0-0.1,0-0.1,0.1-0.2c0.1,0,0.1-0.1,0.2-0.1c0.1,0,0.2,0,0.3-0.1c0.1,0,0.2,0,0.4-0.1c0.1,0,0.3,0,0.4,0h0.1
	c0.1,0,0.2,0.1,0.2,0.2s-0.2,0.1-0.3,0.1C11.6,15.6,11.3,15.6,10.9,15.7z M13.3,23.7c0,0.1-0.1,0.1-0.2,0.1L13,23.7
	c-0.1-0.3-0.1-0.6,0-0.9h0.1c0.1,0,0.1,0.1,0.1,0.1c0,0.1,0,0.1,0,0.2c0,0.2,0,0.3,0,0.5C13.3,23.6,13.3,23.7,13.3,23.7z M15.4,23.4
	c-0.1,0.1-0.1,0.1-0.2,0.1l-0.1-0.1c-0.2-0.3,0.3-0.6,0.3-0.4c0,0.1,0,0.1,0,0.2C15.4,23.2,15.4,23.3,15.4,23.4z M14.3,20.2
	c0.1-0.4,0.1-0.8,0.4-1.1c0.1,0.3-0.1,0.6,0,0.9v0.1c0.1,0.1,0.2-0.1,0.3-0.1c0.1,0,0.1,0.1,0.1,0.2c0,0.3,0,0.5,0,0.8
	c0,0.1,0,0.2,0.1,0.2h0.1c0.1,0,0.1,0.1,0.2,0.1h0.1v0.1c0,0.1,0,0.3,0,0.4c0,0.1,0,0.2-0.1,0.2c-0.1,0.1-0.3,0-0.3-0.2
	c0-0.1,0-0.3-0.1-0.4c0,0,0,0-0.1,0c-0.1,0-0.1,0.1-0.1,0.1c-0.2,0.4-0.1,0.8,0,1.3c0,0.1,0,0.3,0,0.4c-0.1,0.1-0.2,0.2-0.3,0.1
	c-0.1-0.1-0.1-0.2-0.1-0.3c0-0.1-0.1-0.2-0.2-0.2c0,0,0,0-0.1,0.1c-0.1,0.1,0,0.2,0,0.3c0,0.1,0,0.3-0.1,0.3
	c-0.1,0.1-0.2,0.1-0.3,0.1c-0.1-0.1-0.1-0.2-0.1-0.3s0-0.2,0-0.4c0-0.1,0-0.2,0-0.3c0-0.2,0.2-0.3,0.2-0.5c0.2-0.3,0.2-0.7,0-1
	L13.7,21c0,0-0.1,0-0.1,0.1c-0.1,0.1,0,0.3-0.1,0.4c0,0,0,0-0.1,0l-0.1-0.1c-0.1-0.2-0.1-0.5-0.2-0.7c-0.1,0.1-0.2,0.2-0.2,0.4
	c0,0.1,0,0.2-0.1,0.2h-0.1c-0.1,0-0.1,0-0.1,0.1c0,0,0,0.1,0,0.2c0,0.7,0,1.3,0,2v0.1c0,0.1-0.2,0.1-0.2,0c0-0.1-0.1-0.2-0.1-0.3
	c-0.1-0.5-0.1-1.1,0-1.6c0-0.2,0.1-0.5-0.1-0.6c-0.1,0.1-0.1,0.2-0.1,0.3c-0.1,0.8-0.1,1.5,0,2.3c0,0.1,0,0.2-0.1,0.2
	c-0.1,0.1-0.2,0-0.2-0.1s-0.1-0.2-0.1-0.3c0-0.5,0-1.1,0.1-1.6c0-0.2,0.1-0.4,0.1-0.6c-0.1,0-0.2,0.1-0.2,0.2c0,0.1,0,0.2,0,0.3
	c0,0.6-0.1,1.2-0.1,1.9v0.1c-0.1,0.1-0.2,0-0.3-0.1c-0.2-0.3-0.2-0.6-0.2-0.9c0-0.6,0-1.2,0.1-1.8c-0.3,0.4-0.4,0.9-0.4,1.4
	c0,0.5,0.1,1,0,1.4c0,0.1,0,0.2-0.1,0.2c0,0-0.1,0-0.2,0c-0.1,0-0.3,0-0.4-0.2c0-0.1,0-0.2,0-0.3s0.1-0.2,0-0.3
	c0-0.1-0.1-0.2-0.2-0.1c0.1,0.1,0.1,0.2,0,0.3c-0.1,0.1-0.2,0-0.3,0c0-0.1,0-0.2,0-0.2c0-0.5,0-0.9,0.1-1.4c0.1-0.2,0.2-0.4,0.2-0.7
	c-0.4,0.5-0.5,1.1-0.5,1.8c0,0.1,0,0.2,0,0.3s-0.1,0.2-0.2,0.2c-0.1,0-0.2-0.1-0.2-0.2s0-0.2,0-0.3c0-0.2,0-0.4-0.1-0.6
	c-0.2-0.1-0.2-0.2-0.3-0.3c0-0.2-0.1-0.3,0-0.5c0-0.6,0.1-1.2,0.1-1.7L8.7,19c0.1,0,0.2-0.2,0.3-0.3c0.2-0.4,0.3-0.8,0.4-1.2
	c0.1-0.3,0.2-0.7,0.4-0.9l0.1-0.1c0.1,0,0.2,0.1,0.2,0.2c0,0.1,0,0.2,0,0.3l0.1,0.1c0.1,0.1,0,0.2,0,0.4c-0.1,0.4-0.1,0.9-0.1,1.3
	c0,0.2,0,0.4,0.2,0.6c0-0.4,0.1-0.9,0.1-1.3c0-0.2,0-0.3,0.1-0.5c0.1-0.1,0.2-0.3,0.3-0.3c0.2,0.5,0,1.1,0,1.6c0,0.1,0,0.2,0.1,0.3
	c0.1,0.1,0.2,0.1,0.3,0v-0.1c0-0.2,0-0.4,0-0.6c0-0.2,0.1-0.4,0.3-0.5c0,0.1,0.1,0.2,0.1,0.3c0,0,0,0.1,0.1,0.1c0,0,0.1,0,0.1-0.1
	c0.1-0.2,0.2-0.4,0.3-0.6c0.2,0.2,0.1,0.6,0.1,0.8c0,0.1,0.1,0.2,0.2,0.2c0.1,0,0.1-0.1,0.1-0.2c0-0.1,0-0.2,0-0.3
	c0-0.1,0-0.2,0.1-0.2c0.1,0,0.1,0.1,0.1,0.2c0,0.1,0,0.2,0.1,0.2c0.1,0,0.2-0.1,0.2-0.2c0-0.2,0-0.4,0-0.6c0-0.1,0-0.1,0-0.2
	c0-0.1-0.1-0.2-0.1-0.3c0-0.1,0-0.2,0.1-0.3c0.1,0,0.2,0.1,0.2,0.1c0,0.1,0,0.2,0,0.3v0.1c0.1,0.1,0.2,0,0.2-0.1s0-0.2,0-0.3
	c0-0.1,0.1-0.2,0.2-0.1c0.2,0.1,0.3,0.2,0.3,0.4v0.1c0.2,0.1,0.2,0.4,0.1,0.5L14,17.9c-0.1,0.1-0.1,0.1-0.1,0.2
	c-0.1,0.2-0.1,0.5,0,0.7v0.1c0.1,0,0.1,0,0.2,0c0.1,0,0.1,0,0.1,0.1c0,0.1,0,0.1,0,0.2c0,0.2-0.1,0.5-0.1,0.7
	C14.2,20.1,14.2,20.2,14.3,20.2C14.3,20.3,14.2,20.5,14.3,20.2z"/>
<path d="M14.9,15.7c0.1,0,0.1-0.1,0.1-0.1C14.9,15.6,14.9,15.6,14.9,15.7C14.8,15.7,14.9,15.7,14.9,15.7z"/>
<path d="M9,9.9c0,0,0.6-0.3,0.1-0.4c-0.5-0.2-0.7-1-0.7-1C8.3,8.5,8,9.8,9,9.9z"/>
<path d="M11,9.9c-0.1,0.2-0.2,0.2-0.4,0.3c-0.2,0-0.3,0.1-0.4,0.3c0,0.1,0,0.2,0,0.2c0,0.1,0,0.2-0.1,0.2c-0.1,0-0.2,0-0.2,0
	c-0.2,0.1-0.2,0.2-0.2,0.4c0,0.2,0,0.4,0,0.6c0.1,0,0.2-0.1,0.2-0.1c0-0.1,0.1-0.2,0.1-0.3c0-0.1,0.1-0.2,0.2-0.2c0.1,0,0.1,0,0.2,0
	c0.1,0,0-0.1,0.1-0.2c0-0.1,0.1-0.2,0.2-0.2c0.1,0,0.2,0,0.3,0c0.1,0.1,0.1,0.2,0.2,0.3c0.1-0.1,0.1-0.3-0.1-0.5c0,0-0.1,0-0.1-0.1
	c-0.1-0.1,0-0.2,0.1-0.3C11.1,10.1,11.1,10,11,9.9z"/>
<path d="M13.2,9.6c0.1,0,0.2,0.1,0.2,0.2c0,0.1,0,0.2,0,0.3c0,0.1,0,0.3,0,0.4c0,0.1,0,0.1,0.1,0.2c0.2-0.2,0.1-0.5,0.2-0.7l0.1-0.1
	c0.1-0.1,0.1-0.2,0.1-0.3c0,0,0,0,0-0.1c-0.1,0-0.1,0-0.2-0.1c0-0.1,0-0.2-0.1-0.2c-0.1-0.1-0.2,0-0.3,0c0,0,0,0-0.1,0
	c0,0.1,0,0.2,0,0.2C13.1,9.6,13.1,9.6,13.2,9.6z"/>
<path style="fill:#CCCCCC;" d="M14.4,7.3c0,0.1,0,0.2,0,0.2v0.1c0.2,0.1,0.4,0,0.5-0.1C15,7.4,15.1,7.2,15,7c0,0,0-0.1-0.1-0.1
	c-0.1,0-0.1,0-0.2,0.1c0,0.1-0.1,0.1-0.1,0.2C14.7,7.2,14.6,7.2,14.4,7.3C14.5,7.2,14.5,7.2,14.4,7.3C14.4,7.2,14.4,7.3,14.4,7.3z"
	/>
<path style="fill:#CCCCCC;" d="M13.8,6.9c0.1,0,0.1,0,0.2,0c0.1,0,0.2,0,0.2,0c0.1,0,0.2,0,0.2-0.1s0-0.1-0.1-0.1
	c-0.2-0.1-0.4,0-0.5,0.1l-0.1,0.1C13.7,6.8,13.8,6.8,13.8,6.9z"/>
<path style="fill:#CCCCCC;" d="M10.7,6.3l0.1-0.1c0.1-0.1,0.2,0,0.2-0.1c0.1-0.1,0.1-0.2,0.2-0.3l0.1-0.1c0,0,0.1-0.1,0.1-0.2
	c0,0,0,0-0.1-0.1c-0.1,0-0.2,0.1-0.3,0.1c0,0,0,0.1-0.1,0.1c-0.1,0-0.1,0-0.2,0c0,0,0,0-0.1,0c0,0-0.1,0-0.1,0.1
	c-0.1,0.2-0.1,0.3-0.1,0.5v0.1C10.6,6.4,10.6,6.4,10.7,6.3z"/>
<path d="M8.6,12c0,0.1,0,0.2,0,0.4c0,0,0,0.1,0.1,0.1c0.1-0.2,0.1-0.4,0-0.6C8.6,11.8,8.6,11.9,8.6,12z"/>
<path d="M9.7,12.7c-0.1,0-0.1-0.1-0.1-0.1v-0.1H9.5c-0.1,0-0.2,0-0.3,0H9c0,0-0.1,0.1,0,0.1l0.1,0.1h0.1c0.1,0,0.1,0.1,0.1,0.1
	c0,0.1,0,0.1,0,0.2s0,0.1-0.1,0.2c0,0-0.1,0-0.2,0s-0.1,0-0.1,0s-0.1,0-0.1,0.1s0,0.1,0.1,0.1c0,0,0.1,0,0.2,0s0.1,0,0.2,0
	c0.1,0,0.2-0.1,0.3-0.2c0-0.1,0-0.2,0-0.2c0.1,0,0.1,0,0.2,0c0,0,0,0,0-0.1c0-0.1,0-0.1,0-0.2C9.8,12.8,9.8,12.7,9.7,12.7z"/>
<path d="M10.6,13c-0.1,0-0.2,0-0.2,0c-0.1,0-0.1,0.1-0.2,0c0,0,0,0,0,0.1c0,0.2,0,0.3,0,0.5c0,0.1,0,0.2,0,0.3
	c0,0.1,0.1,0.2,0.1,0.2c0-0.1,0-0.1,0-0.2c0-0.1,0-0.1,0.1-0.1h0.1c0,0,0,0,0-0.1C10.7,13.5,10.7,13.2,10.6,13z"/>
<path d="M11.5,12C11.6,12,11.6,12,11.5,12c0.1-0.3,0.2-0.6,0.3-0.8v-0.1c0,0-0.1-0.1-0.1,0C11.6,11.4,11.5,11.7,11.5,12L11.5,12z"/>
<path d="M12.7,11.3h0.1c0,0,0,0,0.1,0c0.1,0,0.2-0.1,0.3-0.1c0.2-0.1,0.1-0.1-0.1-0.1C13.1,11.1,12.7,11.1,12.7,11.3
	C12.6,11.3,12.7,11.3,12.7,11.3z"/>
<path d="M12.1,12.5c0,0,0,0.1-0.1,0.1c-0.1,0.1-0.1,0-0.2,0.1c-0.2,0-0.2,0.2-0.3,0.4c0,0.1,0,0.3,0.1,0.3c0.1,0,0.1,0,0.2,0
	c0.1,0,0.1-0.1,0.1-0.2C12,13.1,12,13,12.1,13c0.1,0,0.1-0.1,0.2-0.1c0-0.1,0-0.2,0.1-0.2c0-0.1,0.1-0.1,0.2-0.2
	c0.1,0,0.2-0.1,0.2-0.1c0.1,0,0.1-0.1,0.1-0.2s-0.1-0.1-0.2-0.1c-0.2,0.1-0.3,0.2-0.5,0.3C12.2,12.4,12.2,12.5,12.1,12.5z"/>
<path d="M11.9,10.1c0,0.1,0,0.2,0,0.3c0.1,0.1,0.2,0,0.3,0h0.1c0.1,0,0.1-0.1,0.1-0.1c0-0.1,0-0.2,0-0.3c0-0.1,0.1-0.2,0.1-0.3
	c0-0.2-0.2-0.1-0.3,0C12.1,9.7,12,9.9,11.9,10.1z"/>
<path d="M9.3,10.4c0-0.1,0-0.1-0.1-0.1c0,0,0,0-0.1,0c-0.1,0-0.1,0-0.2,0.1c-0.1,0.1-0.1,0.3-0.1,0.5c0,0.1-0.1,0.1-0.1,0.2
	c0,0.1-0.1,0.1-0.1,0.2c0,0.1,0,0.1,0,0.2l0.1,0.1c0,0,0,0,0.1,0C8.9,11.5,9,11.5,9,11.5h0.1v-0.1c0-0.2,0-0.4,0-0.5
	C9.3,10.5,9.3,10.5,9.3,10.4z"/>
<path d="M12,7.3c0-0.1,0-0.1,0.1-0.2c0-0.1,0.1-0.2,0.1-0.4V6.6c-0.1-0.1-0.2,0-0.2,0c-0.1,0.1-0.1,0.3-0.1,0.4s0,0.1,0,0.2v0.1
	C11.9,7.4,12,7.3,12,7.3z"/>
<path d="M11.9,8.2c0,0.1,0,0.1-0.1,0.2c0,0.1,0,0.1,0.1,0.1H12c0,0,0-0.1,0.1-0.2c0-0.1,0-0.2,0.1-0.3l0.1-0.1c0-0.1,0-0.1,0-0.2
	s-0.1-0.1-0.1-0.1c-0.1,0-0.2,0-0.2,0.1c-0.1,0.1-0.1,0.1-0.1,0.2c0,0,0,0,0,0.1c0,0,0,0.1,0.1,0.1C11.9,8.1,11.9,8.1,11.9,8.2z"/>
<path d="M15,10.6c0.1-0.1,0.1-0.2,0.1-0.3v-0.1c0,0,0,0-0.1-0.1c0,0-0.1-0.1-0.1-0.2c0-0.1,0.1-0.2,0-0.3h-0.1c0,0-0.1,0-0.1,0.1
	v0.1c0,0.2,0,0.3-0.1,0.5c0,0.1,0,0.1,0,0.2C14.8,10.6,14.9,10.6,15,10.6z"/>
<path d="M15.7,10.2C15.9,10.1,16,10,16,9.9c0.1-0.1,0.1-0.2,0.1-0.3c-0.1,0-0.3,0.1-0.4,0.2c0,0.1,0,0.2-0.1,0.3
	C15.6,10.1,15.6,10.1,15.7,10.2C15.6,10.2,15.6,10.2,15.7,10.2z"/>
<path d="M13.4,12.8c-0.1,0.1-0.1,0.4,0.1,0.3c0.1,0,0.3-0.2,0.4-0.3c0.1-0.1,0-0.2-0.2-0.2C13.6,12.6,13.5,12.7,13.4,12.8z"/>
<path style="fill:#CCCCCC;" d="M12.8,15.9c-0.1,0-0.1,0-0.2,0.1c-0.1,0-0.2,0-0.3,0c-0.3,0-0.7,0.1-0.9,0.3
	c-0.1,0.1-0.1,0.1-0.2,0.1c-0.1,0-0.2,0.1-0.2,0.2c0,0.1,0,0.1,0.1,0.2c0.1,0,0.1,0,0.2,0c0.2,0,0.5-0.1,0.7-0.1
	c0.1,0,0.2,0,0.3-0.1c0.1-0.1,0.1-0.2,0.2-0.2c0.1-0.1,0.2-0.1,0.3-0.1c0.1,0,0.1,0,0.1-0.1C13,16,12.9,15.9,12.8,15.9z"/>
<path style="fill:#CCCCCC;" d="M15.1,23.3l0.1,0.1c0.1,0,0.1,0,0.2,0c0-0.1,0-0.2,0-0.2c0-0.1,0-0.1,0-0.2
	C15.4,22.7,14.9,23,15.1,23.3z"/>
<path style="fill:#CCCCCC;" d="M13.3,22.9c0-0.1-0.1-0.1-0.1-0.1h-0.1c0,0.3-0.1,0.6,0,0.9c0,0,0,0.1,0.1,0.1c0.1,0,0.1,0,0.2-0.1
	c0-0.1,0-0.1,0-0.2c0-0.2,0-0.3,0-0.5C13.3,23,13.3,22.9,13.3,22.9z"/>
<path style="fill:#CCCCCC;" d="M16.4,11.1C16.3,11,16.2,11,16.1,11c-0.1,0-0.2-0.1-0.2-0.2c0-0.1,0.1-0.2,0.1-0.2
	c0.1,0,0.1,0,0.2-0.1c0.1-0.4,0.2-0.8,0.2-1.1c-0.1,0-0.1-0.1-0.1-0.1V9.2c0,0,0-0.1-0.1-0.1s-0.1,0-0.2,0V9c0-0.1-0.1-0.1-0.1-0.1
	c-0.3-0.1-0.6,0-0.8-0.1c0-0.1,0.1-0.2,0.1-0.3c0,0-0.4,0.1-0.5,0.1c0,0.1,0,0.1-0.1,0.2c-0.1,0.1-0.3,0-0.4,0.1
	C14,8.9,14,9,13.9,9.1C13.8,8.9,13.7,9,13.6,9c-0.1,0-0.1-0.1-0.2-0.2c-0.1-0.1-0.3-0.1-0.4,0c-0.1,0.1-0.1,0.1-0.1,0.2
	c0,0.1-0.1,0.1-0.2,0.1c0-0.1-0.1-0.3,0-0.5c0-0.2,0.1-0.4,0.3-0.4c0.1,0,0.2,0.1,0.3,0.2c0.1,0.1,0.2,0.2,0.3,0.1
	c0-0.1,0.1-0.3,0.2-0.3c0.1,0,0.1,0,0.2,0c0.1,0,0.2-0.1,0.1-0.2c0-0.1-0.1-0.2-0.2-0.2h-0.1V7.6c0-0.1,0-0.2,0.1-0.4
	c-0.1,0-0.2,0-0.2,0c0-0.1,0.1-0.2,0.1-0.3c0-0.1-0.2-0.2-0.3-0.1c-0.1,0-0.2,0.2-0.2,0.3c0,0.1,0,0.1-0.1,0.2h-0.1
	c-0.1,0-0.2,0-0.3,0c-0.1,0-0.2-0.1-0.2-0.2c0-0.1,0.2-0.2,0.3-0.3c0.1-0.1,0.2-0.2,0.2-0.3c0-0.1,0-0.1-0.1-0.2h-0.1
	c-0.1-0.1,0-0.2-0.1-0.3c-0.1-0.1-0.2,0-0.2,0c-0.1,0-0.2,0.1-0.2,0V5.9c0-0.1-0.1-0.2-0.2-0.2c-0.1,0-0.2,0-0.2,0.1
	c-0.1,0.2,0,0.5-0.1,0.6c-0.1,0.1-0.4,0-0.5,0c-0.1,0-0.2,0.1-0.2,0.2c0,0.1,0,0.2,0,0.3c0,0.1,0,0.1,0,0.2l-0.1,0.1
	c-0.2,0,0-0.4-0.2-0.4h-0.1c-0.1,0-0.2,0-0.3-0.1c0,0-0.1-0.1-0.1-0.2l-0.1,0.1l-0.1,0.1c-0.1,0.1-0.1,0.2-0.1,0.3S10,7.2,9.9,7.2
	c-0.1-0.1,0-0.3,0.1-0.4c0-0.1,0.1-0.3,0-0.4C9.9,6.3,9.8,6.3,9.6,6.2c-0.1,0-0.1,0-0.2,0c-0.1,0-0.1,0.1-0.2,0.1s-0.2,0-0.3,0
	c-0.1,0-0.2,0-0.2,0.1s0,0.1-0.1,0.2c0,0-0.1,0-0.2,0.1S8.2,6.9,8.2,7.1c0,0.2,0.1,0.4,0.1,0.6c0,0.1,0,0.1,0.1,0.2
	c0,0.1-0.1,0.2-0.2,0.2C8.1,8.1,8,8.1,8,8c0.1,0.1,0.1,0.2,0.1,0.3c0,0.1-0.2,0.2-0.2,0.3L7.8,8.8c0,0.1,0.1,0.2,0.1,0.3
	c0,0.1-0.2,0.2-0.3,0.3S7.4,9.6,7.4,9.8s0.1,0.3,0.2,0.4c0.1,0,0.1,0.1,0.2,0.1c0.1,0,0.1,0.1,0.1,0.2c0,0.1-0.1,0.1-0.2,0.1
	c0,0.1,0,0.2,0,0.3s0.1,0.2,0.1,0.2c0.1,0,0.1,0,0.2,0.1c0.1,0.1,0.1,0.2,0,0.3c-0.1,0.1-0.2,0.1-0.2,0.2c-0.2,0.1-0.3,0.3-0.3,0.5
	c0,0.1,0,0.2,0.1,0.3c0.1,0.2,0.4,0.1,0.6,0.1c0,0.1,0,0.2-0.1,0.2c-0.1,0-0.2,0.1-0.2,0.2c0,0.1,0.1,0.1,0.2,0.1c0.1,0,0.1,0,0.2,0
	c0.1,0.1,0,0.2,0,0.3c-0.1,0.1-0.1,0.3-0.1,0.5c0,0.1,0,0.2,0.1,0.3c0.2,0.1,0.4-0.1,0.6,0.1c0.1,0.1,0,0.2,0,0.4
	c-0.1,0.1-0.2,0.2-0.2,0.3c0,0.1,0,0.2,0.1,0.3c0,0.1,0.2,0.1,0.3,0.1s0.2-0.1,0.3-0.1c0.4-0.2,0.8-0.3,1.2-0.2c0.1,0,0.2,0,0.2-0.1
	c0-0.1,0.1-0.2,0.1-0.2c0.1-0.2,0.4-0.2,0.5-0.2c0,0.1,0,0.2,0.1,0.2c0.1,0,0.2,0,0.2,0c0.1-0.1,0.3-0.2,0.4-0.2
	c0.2,0,0.4,0,0.4,0.2c0.1,0.1,0.2,0.2,0.3,0.1c0.1,0,0.3,0,0.4,0c0.1,0,0.3,0.1,0.3,0.2c0,0.1,0.2,0.1,0.3,0
	c0.1-0.1,0.1-0.1,0.2-0.2c0.1,0,0.1,0,0.2,0c0.1-0.1,0.1-0.1,0,0c0,0,0,0,0.1,0.1v0.1c0,0.2,0.2,0.3,0.3,0.3c0,0,0,0,0.1,0
	c0.1-0.3,0.1-0.7,0.1-1c0-0.1,0-0.2-0.1-0.3c-0.1,0-0.1,0-0.2,0c-0.1,0-0.2-0.1-0.2-0.2c0,0,0-0.1-0.1-0.1c0,0,0,0-0.1,0
	c-0.1,0-0.1,0.1-0.2,0.2c0,0.1,0,0.1-0.1,0.1c0,0,0,0-0.1,0c-0.1,0-0.1,0.1-0.1,0.2v0.1c0,0-0.1,0-0.2,0c-0.1,0-0.2,0-0.3,0.1
	c-0.1,0.1-0.1,0.1-0.1,0.2c-0.1,0-0.1-0.1-0.1-0.2c0-0.1,0-0.2,0.1-0.3c0,0,0.1,0,0.1-0.1c0.1-0.1,0-0.3,0-0.4
	c0-0.2,0.3-0.2,0.4-0.2c0.2,0,0.4,0,0.5,0c0.1,0,0.1,0,0.2,0c0.2-0.1,0.3-0.2,0.3-0.4c0.1-0.2,0.1-0.4,0.2-0.5
	c0,0.2,0.3,0.4,0.5,0.3c0.1,0.3,0,0.6-0.1,0.8c-0.1,0.1-0.2,0.2-0.1,0.4c0.1,0.1,0.2,0.1,0.3,0.1h0.1c0.1-0.1,0.1-0.2,0.1-0.3
	s0-0.2,0.1-0.3c0.1,0,0.1,0,0.2,0c0.1,0,0.1-0.1,0.1-0.1c0.1-0.2,0.2-0.4,0.2-0.6c-0.1-0.2-0.3-0.3-0.4-0.4c-0.3-0.2-0.6-0.3-1-0.5
	c-0.1,0-0.1-0.1-0.1-0.2v-0.1c0.1-0.1,0.3-0.1,0.5,0c0.2,0.1,0.3,0.2,0.5,0.2c-0.1-0.2-0.1-0.5-0.1-0.7c0.1,0,0.2,0.1,0.3,0.2
	c0.2,0.3,0.4,0.7,0.4,1.1c0.2-0.1,0.3-0.4,0.3-0.7C16.6,11.5,16.6,11.2,16.4,11.1z M10.7,9.2C11.1,8.1,9,7.7,9,7.7
	S11.4,7.2,10.7,9.2z M8.3,8.4c0,0,0.3,0.8,0.7,1c0.5,0.2-0.1,0.4-0.1,0.4C8,9.8,8.3,8.5,8.3,8.4z M9.2,11.1
	C9.2,11.2,9.2,11.2,9.2,11.1c-0.1,0.1-0.1,0.1-0.1,0.1c-0.1,0-0.2,0-0.2,0.1c0,0,0,0-0.1,0c-0.1,0-0.1,0-0.1-0.1c0,0,0-0.1,0-0.2
	c0-0.1,0-0.1,0.1-0.2c0-0.1,0.1-0.1,0.1-0.2c0.1-0.1,0-0.3,0.1-0.5c0,0,0.1-0.1,0.2-0.1c0,0,0,0,0.1,0c0.1,0,0.1,0.1,0.1,0.1
	c0,0.1,0,0.1,0,0.2C9.2,10.8,9.2,10.9,9.2,11.1z M8.7,12.4c-0.1,0.1-0.1,0-0.1,0c0-0.1,0-0.2,0-0.4c0-0.1,0-0.1,0.1-0.2
	C8.8,12,8.8,12.2,8.7,12.4z M9.8,13C9.8,13.1,9.8,13.1,9.8,13c-0.1,0.1-0.2,0.1-0.2,0.1c-0.1,0,0,0.1,0,0.2s-0.1,0.2-0.3,0.2
	c-0.1,0-0.1,0-0.2,0s-0.1,0-0.2,0l-0.1-0.1l0.1-0.1h0.1c0.1,0,0.1,0,0.2,0s0.1-0.1,0.1-0.2c0-0.1,0-0.1,0-0.2c0-0.1-0.1-0.1-0.1-0.1
	H9c0,0-0.1,0-0.1-0.1v-0.1H9c0.1,0,0.2,0,0.3,0h0.1v0.1c0,0,0,0.1,0.1,0.1c0,0,0,0,0.1,0s0.1,0.1,0.1,0.1C9.9,12.9,9.8,13,9.8,13z
	 M10.7,13.8C10.7,13.8,10.6,13.8,10.7,13.8c-0.1,0.1-0.1,0.1-0.2,0.1c-0.1,0-0.1,0.1-0.1,0.1c0,0.1,0,0.1,0,0.2
	c-0.1-0.1-0.1-0.1-0.1-0.2s0-0.2,0-0.3c0-0.2,0-0.3,0-0.5V13c0.1,0,0.1,0,0.2,0c0.1,0,0.1-0.1,0.2-0.1
	C10.7,13.2,10.7,13.5,10.7,13.8z M11.2,11c-0.1-0.1-0.2-0.2-0.2-0.3c-0.1-0.1-0.2-0.1-0.3,0c-0.1,0-0.2,0.1-0.2,0.2s0,0.2-0.1,0.2
	c0,0-0.1,0-0.2,0c-0.1,0-0.2,0.1-0.2,0.2c0,0.1,0,0.2-0.1,0.3c0,0.1-0.1,0.2-0.2,0.1c0-0.2,0-0.4,0-0.6c0-0.1,0-0.3,0.2-0.4
	c0.1,0,0.2,0,0.2,0c0.1,0,0.1-0.1,0.1-0.2c0-0.1,0-0.2,0-0.2c0-0.2,0.2-0.2,0.4-0.3c0.2,0,0.3-0.1,0.4-0.3c0.1,0.1,0.2,0.2,0.1,0.3
	c0,0.1-0.1,0.2-0.1,0.3c0,0,0,0,0.1,0.1C11.2,10.7,11.3,10.9,11.2,11z M13,9.4C13.1,9.4,13.1,9.4,13,9.4C13.1,9.4,13.1,9.4,13,9.4
	c0.2,0,0.3-0.1,0.4-0.1c0.1,0,0.1,0.1,0.1,0.2s0.1,0.1,0.2,0.1c0,0,0,0,0,0.1c0,0.1,0,0.2-0.1,0.3l-0.1,0.1
	c-0.2,0.2-0.1,0.5-0.2,0.7c0,0-0.1-0.1-0.1-0.2s0-0.3,0-0.4c0-0.1,0.1-0.2,0-0.3c0-0.1-0.1-0.2-0.2-0.2h-0.1C13,9.6,13,9.5,13,9.4z
	 M12.5,9.6c0,0.1-0.1,0.2-0.1,0.3c0,0.1,0,0.2,0,0.3c0,0.1,0,0.1-0.1,0.1h-0.1c-0.1,0-0.2,0.1-0.3,0c-0.1-0.1-0.1-0.2,0-0.3
	c0-0.2,0.2-0.3,0.3-0.5C12.3,9.6,12.5,9.5,12.5,9.6z M11.8,7.1c0-0.1,0-0.3,0.1-0.4c0.1-0.1,0.2-0.1,0.2,0v0.1C12.1,6.9,12,7,12,7.2
	c0,0.1,0,0.1-0.1,0.2c0,0.1-0.1,0.1-0.2,0V7.3C11.8,7.2,11.8,7.1,11.8,7.1z M11.8,7.9c0-0.1,0.1-0.1,0.1-0.2C12,7.6,12,7.6,12.1,7.6
	c0.1,0,0.1,0.1,0.1,0.1c0,0.1,0,0.1,0,0.2L12.1,8C12,8.1,12,8.2,12,8.4c0,0.1,0,0.1-0.1,0.2c0,0-0.1,0.1-0.1,0l-0.1-0.1
	c0-0.1,0-0.1,0.1-0.2c0-0.1,0-0.1,0-0.2C11.9,8,11.8,8,11.8,7.9z M11.5,11.9c0-0.3,0.1-0.6,0.2-0.9h0.1v0.1
	c-0.1,0.4-0.1,0.6-0.2,0.9c0,0,0,0.1-0.1,0.1C11.5,12,11.5,12,11.5,11.9z M12.9,12.3c-0.1,0-0.2,0.1-0.2,0.1c-0.1,0-0.1,0.1-0.2,0.2
	c0,0.1,0,0.2-0.1,0.2c0,0.1-0.1,0.1-0.2,0.1C12.1,13,12,13,12,13.1c0,0.1-0.1,0.1-0.1,0.2c-0.1,0-0.1,0.1-0.2,0
	c-0.1,0-0.1-0.2-0.1-0.3c0-0.2,0.1-0.3,0.3-0.4c0.1,0,0.2,0,0.2-0.1c0,0,0-0.1,0.1-0.1c0-0.1,0.1-0.1,0.2-0.1
	c0.2-0.1,0.3-0.3,0.5-0.3c0.1,0,0.2,0,0.2,0.1C13,12.2,12.9,12.3,12.9,12.3z M12.9,11.3c-0.1,0-0.1,0-0.2,0c0,0-0.1,0-0.1-0.1
	c0-0.1,0.4-0.2,0.5-0.2c0.1,0,0.3,0.1,0.1,0.1C13.1,11.2,13,11.2,12.9,11.3z M13.9,12.8c0,0.1-0.3,0.3-0.4,0.3
	c-0.2,0.1-0.2-0.2-0.1-0.3c0.1-0.1,0.2-0.2,0.3-0.2C13.9,12.5,13.9,12.6,13.9,12.8z M15,10.6c-0.1,0.1-0.2,0-0.3-0.1
	c0-0.1,0-0.1,0-0.2c0-0.2,0-0.3,0.1-0.5V9.7l0.1-0.1H15c0,0.1,0,0.2,0,0.3c0,0.1,0,0.1,0.1,0.2c0,0,0,0,0.1,0.1v0.1
	C15.2,10.4,15.1,10.5,15,10.6z M15.8,10.2C15.7,10.2,15.7,10.2,15.8,10.2c-0.1,0-0.2,0-0.2,0v-0.1c0-0.1,0-0.2,0.1-0.3
	c0.1-0.1,0.2-0.2,0.4-0.2c0,0.1,0,0.2-0.1,0.3C15.9,10,15.8,10.1,15.8,10.2z"/>
<path d="M10.7,9.2C11.5,7.1,9,7.7,9,7.7S11,8.2,10.7,9.2z"/>
<path d="M15.2,48.5c-0.5-0.8-0.3-2,0.6-3l-3.6-3.9l-2.8,3c1.1,0.9,1.4,2.3,0.8,3.3c-0.4,0.5-1,0.9-1.8,0.9c-0.6,0-1.3-0.2-1.9-0.6
	c-0.7-0.4-1.1-1-1.4-1.7c-0.2-0.7-0.2-1.3,0.2-1.8c0.4-0.5,1-0.8,1.8-0.8c0.5,0,1,0.1,1.5,0.4l2.9-3.2l-1.6-1.7h-1v-1.1l-1.3-1.4
	L6.2,38l-0.6-0.7L6.9,36l-0.4-0.4l-1.3,1.2L4.3,36l1.3-1.3L5,33.9c-0.1-0.2-0.1-0.4,0-0.5c0.1-0.1,0.2-0.2,0.4-0.2
	c0.1,0,0.2,0,0.3,0l4.1,4.3l1.2-0.6l-0.1,1.8l1.4,1.5l0.9-1L13,37.8h1.5l4.8-5.2c0,0,0.1,0,0.2,0c0.2,0,0.5,0.1,0.6,0.6l-1,1.1
	l1.1,1.1v0.7h-0.6L18.4,35L18,35.4l0.1,0.7l0.8,0.7v0.6l-0.6,0.1l-0.8-0.7l-0.7-0.1l-1.7,1.8v1.5l-1.2-0.2l-0.9,1
	c2.8,3,3.5,3.8,3.7,4c0.5-0.3,1-0.4,1.5-0.4c0.8,0,1.4,0.3,1.8,0.9c0.7,1,0.1,2.5-1.2,3.5c-0.5,0.3-1.2,0.5-1.7,0.5
	C16.2,49.4,15.6,49.1,15.2,48.5z M16.5,45.2L12.6,41l1.1-1.2l1.1,0.2v-1.4l1.8-1.9l0.8,0.2l0.8,0.7l0.3-0.1v-0.4l-0.8-0.7v-0.9
	l0.5-0.6l1.2,1.2H20v-0.4l-1.2-1.2l1.1-1.1c0-0.3-0.2-0.4-0.4-0.4c-0.1,0-0.1,0-0.1,0l-4.8,5.3h-1.4l0.2,1.3l-1.1,1l-1.6-1.7
	l0.1-1.5l-1,0.5l-4.1-4.4c0,0-0.1,0-0.2,0c-0.1,0-0.2,0-0.2,0.1c0,0.1,0,0.2,0,0.3L6,34.6l-1.4,1.4l0.6,0.5l1.3-1.2l0.6,0.7
	l-1.3,1.3l0.4,0.4l1.3-1.2L9,38.2v1H10l1.7,1.8l-3.1,3.4c-0.5-0.3-1-0.4-1.5-0.4c-0.7,0-1.3,0.3-1.6,0.8s-0.4,1-0.1,1.7
	c0.2,0.6,0.7,1.2,1.3,1.6c0.6,0.4,1.2,0.6,1.8,0.6c0.7,0,1.3-0.3,1.6-0.8c0.6-0.9,0.2-2.2-0.9-3.2l3-3.3l3.9,4.2
	c-0.9,0.8-1.2,2-0.7,2.9c0.3,0.5,0.9,0.8,1.7,0.8c0.6,0,1.1-0.2,1.6-0.5c1.2-0.8,1.7-2.2,1.1-3.2c-0.3-0.5-0.9-0.8-1.6-0.8
	C17.6,44.7,17,44.9,16.5,45.2z"/>
<path d="M16,48.2c-0.3-0.3-0.4-0.8-0.2-1.3c0.1-0.5,0.4-0.9,0.8-1.2c0.4-0.3,0.8-0.5,1.3-0.5c0.5,0,0.9,0.2,1.2,0.6
	c0.3,0.3,0.4,0.8,0.2,1.3c-0.1,0.5-0.4,0.9-0.8,1.2c-0.4,0.3-0.8,0.5-1.3,0.5C16.8,48.7,16.3,48.5,16,48.2z M16.7,45.7
	c-0.4,0.3-0.6,0.7-0.7,1.1c-0.1,0.4,0,0.8,0.2,1.1c0.2,0.3,0.6,0.5,1.1,0.5c0.4,0,0.8-0.2,1.2-0.4c0.4-0.3,0.6-0.7,0.7-1.1
	c0.1-0.4,0-0.8-0.2-1.1c-0.2-0.3-0.6-0.5-1.1-0.5C17.5,45.3,17,45.5,16.7,45.7z"/>
<path d="M6.8,47.6c-0.4-0.3-0.7-0.8-0.9-1.2c-0.1-0.5-0.1-0.9,0.2-1.2c0.2-0.3,0.6-0.5,1.1-0.5c0.5,0,1,0.2,1.4,0.5
	c0.9,0.7,1.2,1.8,0.7,2.4c-0.2,0.3-0.6,0.5-1.1,0.5S7.2,47.9,6.8,47.6z M6.3,45.1c-0.2,0.3-0.3,0.7-0.2,1.1c0.1,0.4,0.4,0.8,0.8,1.1
	s0.9,0.5,1.3,0.5c0.4,0,0.8-0.2,1-0.4c0.5-0.6,0.2-1.6-0.7-2.2c-0.4-0.3-0.9-0.5-1.3-0.5C6.8,44.7,6.5,44.9,6.3,45.1z"/>
<path d="M38.3,42.3c-2.2-0.6-2.4-1.8-2.4-1.8v-1.3l6.1-2.3l-5.9-0.3L30,35.9l-2.1,1.8l0.4,0.6l0.8,1.1L27.1,42l-0.3,4.4l8.5,1.1
	l3.4-0.9L38.3,42.3z M35.7,40.4c0,0.1,0.1,1.2,2.1,1.9L35,42.9c-1.6-1.2-1.5-2.1-1.5-2.1v-1.3H35h0.2l0.5-0.2V40.4z M28,37.8
	l7.4,0.4l-0.3,1h-6l-0.5-0.7L28,37.8z M35.6,38.2l4.8-1l-5.1,1.9L35.6,38.2z M33.3,39.4v1.3c0,0-0.1,0.9,1.3,2.1L27.1,42l1.8-2.4
	h4.3V39.4z M36.1,36.6l4.7,0.3L35.6,38L36.1,36.6z M30,36l6,0.6L35.5,38L28,37.5L30,36z M26.9,46l0.2-4l7.8,1l0.1,4.1L26.9,46z
	 M35.1,47.1L35,43l3-0.5l0.2,3.8L35.1,47.1z"/>
<path d="M41.3,17.9c-0.4-0.1-1.1-0.2-1.1-0.2h-0.1l-1,1.4c-0.3-0.1-0.6-0.1-0.8-0.2c0.6-1.4,0.6-1.5,0.6-1.5h-0.1
	c-0.6-0.1-1.2-0.2-1.8-0.2h-0.1l0.4,1.6c-0.5-0.1-1-0.1-1.5-0.2c0.1-1.4,0.1-1.4,0.1-1.4v-0.1h-0.1c-0.2,0-0.4,0-0.6,0
	c-0.9-1.4-2.4-2.4-3.9-2.9c1.9-0.8,3.7-2.5,4.6-4.7h0.1H36c0.1,0,0.2,0,0.3,0c0.3,0,0.5-0.1,0.7-0.2c0.1-0.1,0.2-0.2,0.3-0.3
	l1.3,1.4l-0.4,0.4l0.1,0.1l1.4-1.2l2.4-0.1l-2.5-2.8v2.8l-0.2,0.1l-1.7-1.8c-0.1-0.6-0.3-1.7-0.3-1.7V6.1l-0.8,0.7L34.9,5l-0.8,0.7
	l1.7,1.8c0,0-1.3,1.4-1.9,1.9c-0.2,0.2-0.5,0.4-0.7,0.5c-0.8,0.6-1.6,1-2.5,1.4c-0.3,0.2-0.7,0.3-1,0.5c-0.2,0.1-0.7,0.4-1,0.7
	c-0.4,0.4-0.5,1.2-0.2,1.8c0.2,0.5,0.5,0.9,0.8,1.3c0.4,0.5,0.8,1,1.3,1.4h1.3V17h-1.2c-0.5-0.4-0.9-0.9-1.2-1.3
	c-0.3-0.4-0.5-0.8-0.8-1.3c-0.3-0.5-0.2-1.2,0.2-1.6c0.3-0.3,0.7-0.6,1-0.7c0.3-0.2,0.7-0.4,1-0.5c0.8-0.4,1.7-0.9,2.6-1.4
	c0.2-0.2,0.4-0.3,0.7-0.6c0.6-0.5,1.1-1.1,1.6-1.6c0,0.4,0,1.2,0,1.5c-0.9,2.1-2.8,4-4.8,4.8l-0.3,0.1l0.3,0.1
	c1.5,0.3,3.1,1.3,4,2.8c-0.5,0-1,0-1,0h-0.1v1.5c-0.4,0-0.8,0-1.2,0v-1.4h-0.2v1.4c-0.4,0-0.8,0-1.2,0l-0.1-0.7h-0.2l0.1,0.7
	c-0.8,0-1.5,0.1-2.1,0.2c0-0.3,0-1.4,0-1.4h-0.1c-1.4,0.2-2.2,0.4-2.2,0.4h-0.1l1.3,4.3c-1.1,0.2-1.6,0.5-1.7,0.5h-0.1l0.9,1.8h0.1
	c0,0,2.5-0.7,6-0.7c2.6,0,5,0.4,7.3,1.1h0.1l0.9-1.8h-0.1c-0.5-0.2-1-0.3-1.5-0.4L41.3,17.9z M41.6,9.4l-1.8,0.1V7.2L41.6,9.4z
	 M38.8,10.2l-1.3-1.4c0.1-0.1,0.1-0.3,0.2-0.4c0-0.1,0-0.2,0-0.3l1.6,1.7L38.8,10.2z M37.5,7.8c0,0.2,0,0.3,0,0.5
	c0,0.1-0.1,0.3-0.2,0.4C37.2,8.9,37.1,9,37,9.1c-0.3,0.2-0.6,0.2-0.9,0.2H36h-0.1c0-0.5,0-1.4,0-1.6l1.5-1.3
	C37.3,6.6,37.4,7.4,37.5,7.8z M34.4,5.5l0.5-0.4l1.6,1.7L36,7.2L34.4,5.5z M36.9,21.9l0.5-1.3c0.5,0.1,1.1,0.2,1.7,0.3l-0.6,1.3
	C38,22.1,37.4,22,36.9,21.9z M34.3,20.3v1.3c-0.6,0-1.2-0.1-1.8-0.1c-0.3,0-0.6,0-0.8,0v-1.2C32.4,20.3,33.4,20.3,34.3,20.3z
	 M35.4,18.7c0.3,0,0.6,0,0.9,0.1l-0.4,1.3c-1-0.1-1.9-0.1-2.8-0.1v-1.4c0.3,0,0.6,0,0.9,0L35.4,18.7z M36,20.3l0.4-1.4
	c0.7,0.1,1.3,0.2,2,0.3v1.4C37.7,20.4,36.8,20.3,36,20.3z M34.5,20.3c0.9,0,1.8,0.1,2.8,0.3l-0.5,1.3c-0.7-0.1-1.5-0.2-2.2-0.3V20.3
	z M38.7,20.6v-1.4c0.6,0.1,1.2,0.3,1.8,0.4L40,20.9C39.6,20.8,39.1,20.7,38.7,20.6z M37,17.3c0.5,0.1,1,0.1,1.5,0.2
	c-0.1,0.3-0.4,1.1-0.5,1.3c-0.2,0-0.5-0.1-0.7-0.1L37,17.3z M33.9,18.4v-1.3c0.3,0,1.2,0,1.7,0.1l-0.1,1.3h-0.1
	c-0.4,0-0.9-0.1-1.3-0.1H33.9z M33,18.6v1.4c-0.9,0-1.8,0.1-2.6,0.1c-0.1-0.5-0.2-1.2-0.2-1.5C30.9,18.6,31.9,18.6,33,18.6z
	 M30.2,20.3c-1.4,0.1-2.5,0.4-2.8,0.4l-0.5-1.5c0.3-0.1,1.4-0.3,3.1-0.4C30,19,30.1,19.9,30.2,20.3z M28.6,17.4c0,0.2,0,0.5,0,1.3
	c-0.9,0.1-1.5,0.2-1.7,0.3l-0.4-1.2C26.7,17.8,27.4,17.6,28.6,17.4z M27.4,20.9c0.4-0.1,1.8-0.4,4-0.5v1.2c-1.5,0.1-2.8,0.2-3.7,0.4
	L27.4,20.9z M40.2,24.5c-2.3-0.7-4.7-1.1-7.3-1.1c-3.3,0-5.6,0.6-6,0.7l-0.8-1.5c0.5-0.2,2.9-0.9,6.4-0.9c2.8,0,5.6,0.5,8.5,1.3
	L40.2,24.5z M38.7,22.3l0.6-1.3c0.2,0,0.4,0.1,0.6,0.1l-0.5,1.4C39.2,22.4,39,22.3,38.7,22.3z M40.6,19.5c-0.4-0.1-0.9-0.2-1.3-0.3
	l0.9-1.2c0.2,0,0.6,0.1,1,0.2L40.6,19.5z"/>
</svg>
