<?xml version="1.0" standalone="no"?>
<!DOCTYPE svg PUBLIC "-//W3C//DTD SVG 20010904//EN"
 "http://www.w3.org/TR/2001/REC-SVG-20010904/DTD/svg10.dtd">
<svg version="1.0" xmlns="http://www.w3.org/2000/svg"
 width="150.000000pt" height="150.000000pt" viewBox="0 0 150.000000 150.000000"
 preserveAspectRatio="xMidYMid meet">

<g transform="translate(0.000000,150.000000) scale(0.100000,-0.100000)"
fill="#000000" stroke="none">
<path d="M944 1261 c-52 -28 -76 -49 -69 -60 3 -7 1 -10 -6 -9 -22 5 -49 -63
-49 -123 0 -113 79 -199 190 -207 59 -4 120 11 120 30 0 5 4 7 8 4 5 -3 23 9
40 27 88 91 81 221 -16 309 -38 34 -104 59 -119 44 -4 -3 5 -6 19 -6 14 0 37
-10 52 -23 l27 -24 -40 -18 c-23 -10 -41 -22 -41 -27 0 -4 18 1 40 12 37 19
50 17 33 -6 -5 -5 -1 -2 8 8 16 17 17 16 23 -5 5 -18 8 -20 16 -7 5 8 10 11
10 5 0 -5 -4 -16 -9 -23 -6 -11 -10 -10 -15 4 -6 16 -8 16 -26 -1 -11 -10 -18
-21 -15 -23 3 -3 12 3 19 14 13 18 14 17 13 -9 -1 -17 -7 -25 -14 -22 -7 2
-13 0 -13 -5 0 -6 5 -10 11 -10 5 0 7 -4 4 -10 -8 -13 -35 11 -27 25 2 6 -1 4
-9 -3 -8 -7 -14 -16 -15 -20 -4 -32 -16 -40 -45 -30 -17 6 -32 8 -35 5 -3 -3
4 -8 15 -12 12 -3 21 -11 21 -16 0 -6 -8 -6 -20 1 -10 6 -23 10 -27 9 -23 -4
-33 3 -33 22 0 19 30 60 30 42 0 -4 5 0 11 10 16 28 8 27 -36 -1 -40 -26 -105
-41 -71 -17 12 9 13 14 4 23 -9 9 -9 12 0 12 11 0 16 -13 13 -32 -2 -16 9 -7
20 15 6 12 8 19 4 15 -5 -4 -14 -3 -22 3 -17 15 -18 43 0 33 6 -4 3 3 -8 16
l-20 23 24 -13 c13 -6 21 -8 18 -3 -3 5 4 20 15 33 11 14 17 20 14 14 -3 -6 1
-11 9 -11 8 0 12 4 9 9 -5 8 9 12 34 9 6 -1 12 2 12 6 0 15 -55 11 -86 -6z
m16 -187 c0 -2 -7 -4 -15 -4 -8 0 -15 4 -15 10 0 5 7 7 15 4 8 -4 15 -8 15
-10z m170 -4 c0 -5 -2 -10 -4 -10 -3 0 -8 5 -11 10 -3 6 -1 10 4 10 6 0 11 -4
11 -10z m-26 -16 c3 -8 2 -12 -4 -9 -6 3 -10 10 -10 16 0 14 7 11 14 -7z
m-164 -4 c0 -5 -2 -10 -4 -10 -3 0 -8 5 -11 10 -3 6 -1 10 4 10 6 0 11 -4 11
-10z"/>
<path d="M452 1248 c2 -15 13 -24 38 -31 19 -5 40 -13 45 -17 6 -5 19 -2 30 6
20 15 20 16 -8 40 -20 17 -40 24 -68 24 -36 0 -40 -2 -37 -22z"/>
<path d="M300 1215 c-7 -9 -8 -15 -2 -15 5 0 12 7 16 15 3 8 4 15 2 15 -2 0
-9 -7 -16 -15z"/>
<path d="M294 1125 c-19 -47 -18 -58 9 -83 30 -29 38 -28 71 7 25 26 27 34 21
70 -7 40 -8 41 -46 41 -36 0 -41 -3 -55 -35z"/>
<path d="M1040 1111 c-8 -6 -18 -7 -24 -4 -5 3 -6 1 -3 -5 8 -12 47 -4 47 9 0
11 -1 11 -20 0z"/>
<path d="M667 1095 c-4 -8 -2 -17 3 -20 6 -4 10 3 10 14 0 25 -6 27 -13 6z"/>
<path d="M527 1072 c-24 -25 -25 -30 -15 -70 10 -39 13 -42 44 -42 24 0 38 6
48 23 28 44 29 67 5 93 -29 31 -49 30 -82 -4z"/>
<path d="M339 917 c-14 -11 -14 -14 1 -29 23 -25 76 -41 105 -34 36 9 18 39
-32 55 -21 7 -42 14 -48 16 -5 3 -17 -1 -26 -8z"/>
<path d="M606 914 c-5 -14 -4 -15 9 -4 17 14 19 20 6 20 -5 0 -12 -7 -15 -16z"/>
<path d="M477 533 c-10 -3 -14 -10 -11 -16 5 -8 2 -8 -7 1 -18 16 -74 15 -88
-2 -11 -13 14 -15 175 -14 166 0 190 2 218 19 l31 19 -52 0 c-34 0 -52 -4 -50
-11 1 -6 -4 -14 -11 -16 -8 -3 -10 1 -6 11 9 24 -102 23 -130 -1 -20 -17 -20
-17 -7 0 12 15 11 17 -15 16 -16 -1 -37 -3 -47 -6z"/>
<path d="M810 530 c0 -5 8 -11 18 -11 9 -1 4 -5 -13 -9 l-30 -8 30 -1 c17 0
41 8 55 19 l25 20 -42 0 c-24 0 -43 -4 -43 -10z"/>
<path d="M918 532 c12 -2 20 -7 17 -12 -3 -4 -14 -6 -24 -3 -11 3 -28 0 -38
-6 -14 -8 4 -10 73 -11 98 0 124 -12 124 -58 0 -15 6 -22 20 -22 15 0 20 7 20
25 0 16 -6 25 -16 25 -8 0 -12 5 -9 10 4 6 11 7 17 4 14 -9 -7 29 -24 44 -8 6
-49 10 -98 9 -47 -1 -75 -3 -62 -5z"/>
</g>
</svg>
