<?xml version="1.0" standalone="no"?>
<!DOCTYPE svg PUBLIC "-//W3C//DTD SVG 20010904//EN"
 "http://www.w3.org/TR/2001/REC-SVG-20010904/DTD/svg10.dtd">
<svg version="1.0" xmlns="http://www.w3.org/2000/svg"
 width="83.000000pt" height="257.000000pt" viewBox="0 0 83.000000 257.000000"
 preserveAspectRatio="xMidYMid meet">

<g transform="translate(0.000000,257.000000) scale(0.100000,-0.100000)"
fill="#000000" stroke="none">
<path d="M170 2551 c0 -6 36 -36 80 -68 44 -32 80 -60 79 -63 0 -3 -36 -31
-80 -62 -70 -51 -95 -78 -71 -78 4 0 48 29 97 65 83 61 92 65 142 65 29 0 53
5 53 10 0 6 -21 10 -46 10 -53 0 -65 6 -161 77 -72 52 -93 62 -93 44z"/>
<path d="M172 2148 l3 -103 148 -3 147 -3 0 106 c0 63 -4 105 -10 105 -6 0
-10 -37 -10 -90 l0 -90 -55 0 -54 0 -3 75 c-2 42 -7 75 -13 75 -6 0 -11 -33
-13 -75 l-3 -75 -54 0 -55 0 0 90 c0 74 -3 90 -15 90 -13 0 -15 -16 -13 -102z"/>
<path d="M560 1997 c0 -16 9 -28 25 -35 14 -6 25 -15 25 -20 0 -5 -11 -15 -25
-22 -16 -9 -25 -22 -25 -38 0 -26 0 -26 75 25 11 7 34 13 52 13 26 0 33 4 33
20 0 16 -7 20 -31 20 -17 0 -43 8 -57 19 -15 10 -37 23 -49 30 -21 11 -23 9
-23 -12z"/>
<path d="M447 1993 c-4 -3 -7 -44 -7 -90 l0 -83 -135 0 c-83 0 -135 -4 -135
-10 0 -6 57 -10 150 -10 l150 0 0 100 c0 92 -5 112 -23 93z"/>
<path d="M560 1810 c0 -13 15 -27 47 -44 l48 -24 -48 -23 c-30 -15 -47 -29
-47 -41 0 -16 10 -18 80 -18 73 0 80 2 80 20 0 16 -7 20 -37 20 l-38 1 28 15
c36 19 34 40 -5 61 l-33 18 43 3 c28 2 42 8 42 18 0 11 -17 14 -80 14 -73 0
-80 -2 -80 -20z"/>
<path d="M172 1633 c2 -82 7 -118 16 -121 9 -3 12 12 12 52 l0 56 136 0 c104
0 135 3 132 13 -3 8 -42 13 -136 15 l-132 3 0 49 c0 38 -4 50 -15 50 -13 0
-15 -17 -13 -117z"/>
<path d="M560 1560 l0 -60 80 0 80 0 0 60 c0 53 -2 60 -20 60 -17 0 -20 -7
-20 -40 0 -22 -4 -40 -10 -40 -5 0 -10 16 -10 35 0 28 -4 35 -20 35 -16 0 -20
-7 -20 -35 0 -22 -5 -35 -13 -35 -9 0 -11 12 -9 40 4 35 2 40 -17 40 -19 0
-21 -6 -21 -60z"/>
<path d="M447 1553 c-4 -3 -7 -44 -7 -90 l0 -83 -135 0 c-83 0 -135 -4 -135
-10 0 -6 57 -10 150 -10 l150 0 0 100 c0 92 -5 112 -23 93z"/>
<path d="M582 1450 c-17 -17 -22 -32 -22 -75 l0 -55 81 0 81 0 -4 57 c-4 43
-10 61 -28 75 -30 24 -81 23 -108 -2z m82 -26 c10 -4 16 -18 16 -35 0 -27 -3
-29 -40 -29 -37 0 -40 2 -40 28 0 16 3 32 7 35 8 9 36 9 57 1z"/>
<path d="M320 1250 c-79 -37 -146 -72 -148 -78 -1 -5 3 -14 10 -19 13 -11 274
-133 283 -133 3 0 5 6 5 14 0 7 -13 19 -30 26 l-30 12 0 94 0 93 30 16 c17 9
30 22 30 30 0 8 -1 15 -2 14 -2 0 -68 -31 -148 -69z m60 -85 c0 -41 -3 -75 -7
-74 -5 0 -44 17 -88 38 l-80 38 75 35 c41 20 81 37 88 37 8 1 12 -20 12 -74z"/>
<path d="M630 1261 c-53 -23 -65 -32 -65 -51 0 -19 12 -27 70 -51 84 -34 85
-34 85 -9 0 11 -4 20 -10 20 -5 0 -10 18 -10 40 0 22 5 40 10 40 6 0 10 9 10
20 0 25 -11 24 -90 -9z m30 -50 c0 -14 -5 -18 -20 -14 -25 7 -26 20 -2 26 9 3
18 5 20 6 1 0 2 -8 2 -18z"/>
<path d="M566 1078 c-9 -21 -11 -41 -5 -62 5 -17 9 -32 9 -33 0 -1 14 -10 30
-18 56 -29 120 12 120 75 0 43 -35 85 -50 60 -5 -8 -3 -22 7 -36 29 -45 -28
-94 -68 -58 -21 19 -25 44 -8 61 13 13 5 43 -11 43 -6 0 -17 -14 -24 -32z"/>
<path d="M375 1000 c-30 -11 -41 -28 -61 -90 -24 -74 -42 -100 -70 -100 -31 0
-54 36 -54 83 0 30 7 46 30 69 35 34 32 47 -5 30 -66 -30 -58 -191 11 -208 50
-13 80 18 109 114 34 111 115 106 115 -6 0 -36 -5 -49 -31 -73 -26 -24 -28
-30 -15 -35 40 -15 85 72 72 139 -11 61 -56 95 -101 77z"/>
<path d="M638 916 c-63 -25 -78 -35 -78 -52 0 -21 9 -26 148 -81 15 -6 17 33
2 42 -14 8 -13 72 1 77 6 2 9 13 7 24 -3 19 -5 19 -80 -10z m22 -51 c0 -16 -9
-19 -36 -8 -16 6 -16 7 2 14 29 11 34 10 34 -6z"/>
<path d="M150 425 l0 -235 218 0 c206 0 219 1 257 23 45 25 87 88 108 163 14
46 13 55 -6 112 -25 78 -83 147 -135 162 -20 5 -128 10 -239 10 l-203 0 0
-235z m90 185 c0 -5 -5 -10 -11 -10 -5 0 -7 5 -4 10 3 6 8 10 11 10 2 0 4 -4
4 -10z m110 -10 c0 -7 6 -7 18 -1 17 9 18 5 18 -58 -1 -68 -1 -68 -28 -67 -15
1 -30 5 -35 10 -4 5 -3 7 2 3 6 -3 16 3 23 13 10 16 9 18 -6 14 -9 -3 -28 -11
-41 -17 -20 -10 -26 -9 -35 7 -6 10 -21 31 -33 46 -20 24 -21 29 -7 34 8 3 13
2 10 -3 -3 -5 7 -22 23 -39 l29 -30 21 29 c12 16 25 27 29 25 5 -3 14 0 22 6
13 8 12 9 -2 5 -10 -4 -18 1 -21 14 -3 10 -1 19 4 19 5 0 9 -5 9 -10z m185
-40 c-11 -17 11 -11 35 10 40 35 50 26 50 -40 0 -53 -2 -60 -20 -60 -11 0 -28
4 -38 9 -9 5 -25 12 -36 15 -13 5 -17 12 -12 29 3 12 6 36 6 52 1 25 2 27 11
12 5 -9 7 -22 4 -27z m112 -202 c-3 -8 -6 -5 -6 6 -1 11 2 17 5 13 3 -3 4 -12
1 -19z m-397 -12 c0 6 6 11 14 11 9 0 13 -9 11 -23 -1 -13 1 -21 5 -19 5 3 11
-3 14 -12 11 -26 -41 -45 -70 -25 -19 13 -25 42 -9 48 8 4 15 14 15 23 0 14 2
14 10 1 5 -8 10 -10 10 -4z m341 -9 c-18 -20 -19 -26 -8 -36 8 -6 21 -9 30 -5
8 3 17 1 20 -3 8 -13 -38 -10 -54 4 -11 9 -19 7 -37 -8 -14 -11 -20 -23 -16
-30 4 -8 3 -9 -4 -5 -7 4 -12 2 -12 -4 0 -6 -5 -8 -12 -4 -8 5 0 18 25 39 29
26 34 34 24 45 -10 12 -9 12 4 2 13 -10 19 -8 34 8 10 11 20 20 23 20 3 0 -4
-11 -17 -23z m-220 -27 c5 0 9 -7 9 -15 0 -9 -9 -15 -23 -15 -17 0 -23 6 -22
23 0 12 5 29 10 37 8 12 11 11 13 -7 2 -13 8 -23 13 -23z m240 -57 c13 -16 12
-17 -3 -4 -17 13 -22 21 -14 21 2 0 10 -8 17 -17z"/>
<path d="M542 520 c0 -14 2 -19 5 -12 2 6 2 18 0 25 -3 6 -5 1 -5 -13z"/>
<path d="M571 494 c0 -11 3 -14 6 -6 3 7 2 16 -1 19 -3 4 -6 -2 -5 -13z"/>
</g>
</svg>
